<?xml version="1.0" encoding="utf-8"?>
<!-- Generator: Adobe Illustrator 26.2.1, SVG Export Plug-In . SVG Version: 6.00 Build 0)  -->
<svg version="1.1" id="Layer_1" xmlns="http://www.w3.org/2000/svg" xmlns:xlink="http://www.w3.org/1999/xlink" x="0px" y="0px"
	 viewBox="0 0 128 128" style="enable-background:new 0 0 128 128;" xml:space="preserve">
<style type="text/css">
	.st0{fill-rule:evenodd;clip-rule:evenodd;fill:#000080;}
</style>
<path class="st0" d="M68.9,22L30.4,49.7H13.7c-0.4,0-0.9,0.1-1.3,0.3c-0.4,0.2-0.8,0.4-1.1,0.7c-0.3,0.3-0.5,0.7-0.7,1.1
	c-0.2,0.4-0.2,0.8-0.2,1.2v23.5l0,0c0,0.8,0.4,1.6,1,2.2c0.6,0.6,1.4,0.9,2.3,0.9h15.5c0.2,0.3,0.5,0.5,0.8,0.7l39,25.8
	c2.4,1.6,5.6-0.1,5.6-3V24.9C74.6,22,71.3,20.3,68.9,22z M28.2,75.7H14.5v-22h13.7V75.7z M71.4,103.3c0,0.3-0.4,0.5-0.6,0.3
	L32.2,78.1V52.4l38.5-27.8c0.3-0.2,0.6,0,0.6,0.3V103.3z"/>
<path class="st0" d="M86.3,52.2c-0.8-0.7-2.1-0.7-2.8,0.1c-0.7,0.8-0.7,2.1,0.1,2.8c2,1.9,3.9,4.8,4.3,8c0.4,3.1-0.5,6.7-4.3,10.3
	c-0.8,0.7-0.9,2-0.1,2.8c0.7,0.8,2,0.9,2.8,0.1c4.7-4.4,6.2-9.3,5.6-13.7C91.4,58.3,88.9,54.6,86.3,52.2z"/>
<path class="st0" d="M91.8,43.9c0.6-0.9,1.9-1.1,2.8-0.5c6.1,4.2,9.8,11.8,10.2,19.7c0.4,8-2.5,16.5-9.7,22.6
	c-0.8,0.7-2.1,0.6-2.8-0.2c-0.7-0.8-0.6-2.1,0.2-2.8c6.2-5.2,8.6-12.4,8.3-19.3c-0.3-6.9-3.5-13.3-8.4-16.6
	C91.5,46,91.2,44.8,91.8,43.9z"/>
<path class="st0" d="M103,33.9c-0.9-0.6-2.2-0.4-2.8,0.5c-0.6,0.9-0.4,2.2,0.5,2.8c7.6,5.2,12.2,14.7,12.6,25.2
	c0.4,10.4-3.3,21.4-11.8,29.3c-0.8,0.7-0.9,2-0.1,2.8c0.8,0.8,2,0.9,2.8,0.1c9.5-8.8,13.5-20.9,13.1-32.4
	C116.8,50.8,111.9,39.9,103,33.9z"/>
</svg>
