<?xml version="1.0" encoding="utf-8"?>
<!-- Generator: Adobe Illustrator 26.2.1, SVG Export Plug-In . SVG Version: 6.00 Build 0)  -->
<svg version="1.1" id="Layer_1" xmlns="http://www.w3.org/2000/svg" xmlns:xlink="http://www.w3.org/1999/xlink" x="0px" y="0px"
	 viewBox="0 0 128 128" style="enable-background:new 0 0 128 128;" xml:space="preserve">
<style type="text/css">
	.st0{fill-rule:evenodd;clip-rule:evenodd;fill:#000080;}
</style>
<path class="st0" d="M102.2,92.6c-0.1-0.5-0.4-1-0.8-1.3c-4.2-3.5-7.2-7.1-9.4-11.1c-0.1-0.4-0.3-0.8-0.5-1.1
	c-0.2-0.4-0.4-0.8-0.5-1.2c-2.2-5.1-3.2-11.3-3.2-19.7c0-9.3-3.1-16.2-7.8-20.7c-3-2.9-6.5-4.8-10.1-5.8c1.4-1.5,2.3-3.5,2.3-5.7
	c0-4.7-3.8-8.4-8.4-8.4c-4.7,0-8.4,3.8-8.4,8.4c0,2.2,0.9,4.2,2.3,5.7c-3.6,1-7.2,2.9-10.1,5.8c-4.7,4.5-7.8,11.4-7.8,20.7
	c0,8.4-1,14.6-3.2,19.7c-0.2,0.4-0.3,0.8-0.5,1.1c-0.3,0.3-0.6,0.8-0.6,1.2c-2.1,4-5.2,7.5-9.3,11.1c-0.4,0.3-0.7,0.8-0.8,1.3
	c-0.1,0.5-0.1,1.1,0.1,1.6s0.5,0.9,1,1.3c0.4,0.3,1,0.5,1.5,0.5h0h20.6c0.3,3.8,2,7.4,4.7,10.1c3,3,7.1,4.7,11.4,4.7
	c4.3,0,8.4-1.7,11.4-4.7c2.7-2.7,4.4-6.3,4.7-10.1h19.3h0c0.5,0,1.1-0.2,1.5-0.5c0.4-0.3,0.8-0.8,1-1.3
	C102.3,93.6,102.3,93.1,102.2,92.6z M63.7,21.5c2.4,0,4.4,2,4.4,4.4s-2,4.4-4.4,4.4s-4.4-2-4.4-4.4S61.2,21.5,63.7,21.5z
	 M72.9,103.2c-2.3,2.3-5.4,3.6-8.6,3.6c-3.2,0-6.3-1.3-8.6-3.6c-2-2-3.2-4.6-3.5-7.3h24.2C76.1,98.6,74.9,101.2,72.9,103.2z
	 M78.4,91.9H50.1H31.2c3.1-2.9,5.5-6,7.4-9.5h12c1.1,0,2-0.9,2-2s-0.9-2-2-2H40.5c2.2-5.6,3.1-12.1,3.1-20.3
	c0-8.4,2.8-14.1,6.6-17.8c3.8-3.7,8.8-5.4,13.5-5.4c4.7,0,9.7,1.7,13.5,5.4c3.8,3.7,6.5,9.5,6.5,17.8c0,8.2,0.9,14.7,3.1,20.3H72.6
	c-1.1,0-2,0.9-2,2s0.9,2,2,2h16.1c1.9,3.5,4.3,6.5,7.4,9.5H78.4z"/>
<path class="st0" d="M66.3,80.4c0,0.6-0.2,1.1-0.5,1.6c-0.3,0.5-0.7,0.8-1.3,1c-0.5,0.2-1.1,0.3-1.6,0.2c-0.5-0.1-1.1-0.4-1.4-0.8
	c-0.4-0.4-0.7-0.9-0.8-1.4s-0.1-1.1,0.2-1.6c0.2-0.5,0.6-1,1-1.3c0.5-0.3,1-0.5,1.6-0.5c0.7,0,1.5,0.3,2,0.8
	C66,78.9,66.3,79.7,66.3,80.4z"/>
<path class="st0" d="M99.9,39.4c-0.5-1-1.6-1.5-2.6-1c-1,0.5-1.5,1.6-1,2.6l1.7,3.8l0,0c1.7,3.6,2.6,7.6,2.7,11.6
	c0,4-0.8,8-2.4,11.7l0,0l-1.5,3.4c-0.4,1,0,2.2,1,2.6c1,0.4,2.2,0,2.6-1l1.5-3.4l0,0c1.9-4.2,2.8-8.8,2.7-13.4c0-4.6-1.1-9.1-3-13.3
	L99.9,39.4z"/>
<path class="st0" d="M30.8,38.4c1,0.5,1.5,1.6,1,2.6l-1.7,3.8l0,0c-1.7,3.6-2.6,7.6-2.6,11.6c0,4,0.8,8,2.4,11.7l0,0l1.5,3.4
	c0.4,1,0,2.2-1,2.6c-1,0.4-2.2,0-2.6-1l-1.5-3.4c-1.9-4.2-2.8-8.7-2.8-13.3c0-4.6,1.1-9.1,3-13.3l1.7-3.7
	C28.6,38.4,29.8,38,30.8,38.4z"/>
</svg>
