<?xml version="1.0" encoding="utf-8"?>
<!-- Generator: Adobe Illustrator 26.2.1, SVG Export Plug-In . SVG Version: 6.00 Build 0)  -->
<svg version="1.1" id="Layer_1" xmlns="http://www.w3.org/2000/svg" xmlns:xlink="http://www.w3.org/1999/xlink" x="0px" y="0px"
	 viewBox="0 0 128 128" style="enable-background:new 0 0 128 128;" xml:space="preserve">
<style type="text/css">
	.st0{fill-rule:evenodd;clip-rule:evenodd;fill:#000080;}
</style>
<g>
	<path class="st0" d="M97,29.9h-4.4v-4.1c0-3.8-3.1-6.8-6.8-6.8C82.1,19,79,22,79,25.8v4.1H49v-4.1c0-3.8-3.1-6.8-6.8-6.8
		c-3.8,0-6.8,3.1-6.8,6.8v4.1H31c-6.6,0-12,5.4-12,12v3.7v4V97c0,6.6,5.4,12,12,12h66c6.6,0,12-5.4,12-12V41.9
		C109,35.3,103.6,29.9,97,29.9z M83,25.8c0-1.6,1.3-2.8,2.8-2.8s2.8,1.3,2.8,2.8v7.3c0,1.6-1.3,2.8-2.8,2.8S83,34.6,83,33.1V25.8z
		 M39.4,25.8c0-1.6,1.3-2.8,2.8-2.8c1.6,0,2.8,1.3,2.8,2.8v7.3c0,1.6-1.3,2.8-2.8,2.8c-1.6,0-2.8-1.3-2.8-2.8V25.8z M105.8,97
		c0,4.9-3.9,8.8-8.8,8.8H31c-4.9,0-8.8-3.9-8.8-8.8V49.6h83.6V97z M105.8,45.6H22.2v-3.7c0-4.9,3.9-8.8,8.8-8.8h4.4
		c0,3.8,3.1,6.8,6.8,6.8c3.8,0,6.8-3,6.8-6.8h30c0,3.8,3.1,6.8,6.8,6.8c3.8,0,6.8-3,6.8-6.8H97c4.9,0,8.8,3.9,8.8,8.8V45.6z"/>
	<circle class="st0" cx="34.5" cy="63.5" r="3.6"/>
	<path class="st0" d="M49,67.2c2,0,3.6-1.6,3.6-3.6S51,59.9,49,59.9s-3.6,1.6-3.6,3.6S47,67.2,49,67.2z"/>
	<path class="st0" d="M63.5,67.2c2,0,3.6-1.6,3.6-3.6s-1.6-3.6-3.6-3.6s-3.6,1.6-3.6,3.6S61.5,67.2,63.5,67.2z"/>
	<path class="st0" d="M78.1,67.2c2,0,3.6-1.6,3.6-3.6s-1.6-3.6-3.6-3.6s-3.6,1.6-3.6,3.6S76.1,67.2,78.1,67.2z"/>
	<path class="st0" d="M92.6,67.2c2,0,3.6-1.6,3.6-3.6s-1.6-3.6-3.6-3.6S89,61.5,89,63.5S90.6,67.2,92.6,67.2z"/>
	<path class="st0" d="M34.5,81.7c2,0,3.6-1.6,3.6-3.6s-1.6-3.6-3.6-3.6s-3.6,1.6-3.6,3.6S32.4,81.7,34.5,81.7z"/>
	<path class="st0" d="M49,81.7c2,0,3.6-1.6,3.6-3.6S51,74.5,49,74.5c-2,0-3.6,1.6-3.6,3.6S47,81.7,49,81.7z"/>
	<path class="st0" d="M63.5,81.7c2,0,3.6-1.6,3.6-3.6s-1.6-3.6-3.6-3.6s-3.6,1.6-3.6,3.6S61.5,81.7,63.5,81.7z"/>
	<path class="st0" d="M78.1,81.7c2,0,3.6-1.6,3.6-3.6s-1.6-3.6-3.6-3.6c-2,0-3.6,1.6-3.6,3.6S76.1,81.7,78.1,81.7z"/>
	<path class="st0" d="M92.6,81.7c2,0,3.6-1.6,3.6-3.6s-1.6-3.6-3.6-3.6S89,76.1,89,78.1S90.6,81.7,92.6,81.7z"/>
	<path class="st0" d="M34.5,96.3c2,0,3.6-1.6,3.6-3.6S36.5,89,34.5,89s-3.6,1.6-3.6,3.6S32.4,96.3,34.5,96.3z"/>
	<path class="st0" d="M49,96.3c2,0,3.6-1.6,3.6-3.6S51,89,49,89c-2,0-3.6,1.6-3.6,3.6S47,96.3,49,96.3z"/>
	<path class="st0" d="M63.5,96.3c2,0,3.6-1.6,3.6-3.6S65.6,89,63.5,89s-3.6,1.6-3.6,3.6S61.5,96.3,63.5,96.3z"/>
	<path class="st0" d="M78.1,96.3c2,0,3.6-1.6,3.6-3.6S80.1,89,78.1,89c-2,0-3.6,1.6-3.6,3.6S76.1,96.3,78.1,96.3z"/>
	<path class="st0" d="M92.6,96.3c2,0,3.6-1.6,3.6-3.6S94.6,89,92.6,89S89,90.6,89,92.6S90.6,96.3,92.6,96.3z"/>
</g>
</svg>
