<svg width="128" height="128" viewBox="0 0 128 128" fill="none" xmlns="http://www.w3.org/2000/svg">
<path d="M65.6255 23.375V13.625C65.6255 12.7276 64.8978 12 64.0005 12C63.1031 12 62.3755 12.7276 62.3755 13.625V23.375C62.3755 24.2724 63.1031 25 64.0005 25C64.8978 25 65.6255 24.2724 65.6255 23.375Z" fill="#000080"/>
<path d="M56.835 25.6174C57.3159 25.6174 57.773 25.4048 58.082 25.0356C58.391 24.6663 58.5209 24.1795 58.4367 23.7058L57.8636 20.5045H57.8629C57.7882 20.0793 57.5466 19.7014 57.1933 19.4547C56.8393 19.2074 56.4012 19.1116 55.9768 19.1878C55.5516 19.264 55.1744 19.5055 54.9285 19.8603C54.6819 20.215 54.5868 20.6525 54.6637 21.0776L55.2368 24.2789H55.2375C55.3761 25.053 56.0486 25.6166 56.835 25.6174Z" fill="#000080"/>
<path d="M43.1259 25.1808C42.9083 24.8079 42.5514 24.5366 42.1335 24.4278C41.7164 24.3182 41.2724 24.3792 40.8995 24.5975C40.5274 24.8159 40.2575 25.1736 40.1487 25.5914C40.0406 26.0093 40.1023 26.4525 40.3214 26.8247L41.9717 29.6401C42.1894 30.0122 42.5463 30.2828 42.9642 30.3924C43.3813 30.5012 43.8252 30.4403 44.1974 30.2219C44.5695 30.0035 44.8394 29.6466 44.9482 29.2288C45.057 28.8116 44.9947 28.3677 44.7763 27.9955L43.1259 25.1808Z" fill="#000080"/>
<path d="M28.8346 37.0491L31.3635 39.1391C31.6957 39.414 32.1238 39.5461 32.5532 39.5062C32.9827 39.4655 33.378 39.2559 33.653 38.9236C33.9279 38.5907 34.0592 38.1626 34.0179 37.7332C33.9772 37.3037 33.7668 36.9083 33.4339 36.6341L30.905 34.5441C30.5728 34.2684 30.1448 34.1364 29.7153 34.177C29.2859 34.2169 28.8898 34.4266 28.6148 34.7595C28.3406 35.0918 28.2093 35.5205 28.2499 35.95C28.2913 36.3795 28.5017 36.7748 28.8346 37.0491Z" fill="#000080"/>
<path d="M26.7667 50.6546C27.0692 49.8094 26.6296 48.8794 25.7851 48.5763L22.6824 47.4649C22.2769 47.3183 21.8293 47.3401 21.439 47.5236C21.0495 47.7079 20.7484 48.0394 20.6026 48.4457C20.4568 48.8512 20.4793 49.2988 20.6635 49.6884C20.8478 50.0787 21.1801 50.379 21.5863 50.5241L24.689 51.6355L24.6883 51.6362C25.0938 51.7813 25.5414 51.7602 25.931 51.576C26.3205 51.3917 26.6216 51.0602 26.7667 50.6547L26.7667 50.6546Z" fill="#000080"/>
<path d="M19.4477 62.3751C18.5504 62.3751 17.8228 63.1027 17.8228 64.0001C17.8228 64.8975 18.5504 65.6251 19.4477 65.6251H22.7492H22.7484C23.6465 65.6251 24.3734 64.8975 24.3734 64.0001C24.3734 63.1027 23.6465 62.3751 22.7484 62.3751H19.4477Z" fill="#000080"/>
<path d="M21.5868 77.4772C21.1806 77.6222 20.8483 77.9226 20.664 78.3129C20.4798 78.7024 20.4573 79.15 20.6031 79.5556C20.7489 79.9618 21.05 80.2933 21.4395 80.4776C21.8298 80.6611 22.2774 80.6829 22.6829 80.5363L25.7856 79.425C26.1919 79.2806 26.5249 78.9795 26.7099 78.59C26.8941 78.1997 26.9166 77.7521 26.7708 77.3458C26.625 76.9389 26.3239 76.6073 25.9329 76.4238C25.5426 76.2395 25.095 76.2185 24.6888 76.365L21.5868 77.4772Z" fill="#000080"/>
<path d="M28.618 93.2389C28.8923 93.5712 29.2876 93.7808 29.7164 93.8214C30.1451 93.8621 30.5731 93.7308 30.9054 93.4558L33.4342 91.3658C34.1234 90.7941 34.2199 89.7713 33.6489 89.0806C33.078 88.3892 32.0559 88.2913 31.3637 88.8608L28.8349 90.9508C28.5026 91.2257 28.293 91.6211 28.2524 92.0498C28.2117 92.4786 28.343 92.9066 28.618 93.2388L28.618 93.2389Z" fill="#000080"/>
<path d="M41.7215 103.624C42.2989 103.624 42.8329 103.319 43.1252 102.82L44.7756 100.005V100.006C44.9947 99.6334 45.0563 99.1894 44.9483 98.7716C44.8394 98.3537 44.5696 97.9961 44.1974 97.7784C43.8245 97.5601 43.3806 97.4984 42.9634 97.6079C42.5456 97.7175 42.1887 97.9881 41.971 98.361L40.3207 101.176C40.0261 101.678 40.0232 102.3 40.3127 102.806C40.6014 103.311 41.139 103.623 41.7215 103.624L41.7215 103.624Z" fill="#000080"/>
<path d="M55.2385 103.721L54.6654 106.922L54.6647 106.923C54.5878 107.347 54.6828 107.784 54.9295 108.139C55.1754 108.494 55.5526 108.736 55.9777 108.812C56.4021 108.888 56.8403 108.792 57.1943 108.545C57.5476 108.298 57.7892 107.92 57.8639 107.495L58.437 104.294H58.4377C58.5937 103.412 58.0061 102.569 57.1239 102.411C56.2418 102.253 55.3981 102.839 55.2386 103.721L55.2385 103.721Z" fill="#000080"/>
<path d="M70.8771 102.407C70.4527 102.484 70.0755 102.725 69.8296 103.079C69.5829 103.433 69.4879 103.869 69.5633 104.294L70.1364 107.495H70.1371C70.2119 107.92 70.4534 108.298 70.8067 108.545C71.1607 108.792 71.5989 108.888 72.0233 108.812C72.4484 108.736 72.8256 108.494 73.0716 108.139C73.3182 107.784 73.4132 107.347 73.3364 106.922L72.7633 103.721H72.7625C72.6871 103.296 72.4455 102.92 72.0922 102.673C71.7382 102.427 71.3008 102.331 70.8771 102.407Z" fill="#000080"/>
<path d="M84.8736 102.82C85.0912 103.193 85.4481 103.464 85.866 103.573C86.2831 103.682 86.7271 103.621 87.1 103.403C87.4721 103.185 87.742 102.827 87.8508 102.409C87.9589 101.991 87.8972 101.548 87.6782 101.176L86.0278 98.3605C85.8101 97.9876 85.4532 97.717 85.0354 97.6075C84.6182 97.4979 84.1743 97.5596 83.8014 97.7779C83.4292 97.9956 83.1594 98.3532 83.0506 98.7711C82.9425 99.1889 83.0041 99.6329 83.2232 100.005L84.8736 102.82Z" fill="#000080"/>
<path d="M99.1649 90.9508L96.6361 88.8608C95.944 88.2913 94.9218 88.3892 94.3509 89.0806C93.78 89.7712 93.8764 90.7941 94.5656 91.3658L97.0944 93.4558C97.7865 94.026 98.8087 93.9274 99.3796 93.2367C99.9506 92.5461 99.8548 91.5232 99.1649 90.9508V90.9508Z" fill="#000080"/>
<path d="M101.234 77.3455C100.931 78.1906 101.371 79.1207 102.215 79.4238L105.318 80.5352C105.724 80.6818 106.172 80.6614 106.562 80.4772C106.952 80.2936 107.254 79.9614 107.4 79.5551C107.545 79.1489 107.523 78.7013 107.338 78.311C107.153 77.9207 106.821 77.6204 106.414 77.476L103.311 76.3646L103.312 76.3639C102.907 76.2188 102.459 76.2406 102.069 76.4241C101.68 76.6084 101.38 76.9399 101.234 77.3454V77.3455Z" fill="#000080"/>
<path d="M108.552 65.6251C109.45 65.6251 110.177 64.8975 110.177 64.0001C110.177 63.1027 109.45 62.3751 108.552 62.3751H105.251H105.251C104.353 62.3751 103.626 63.1027 103.626 64.0001C103.626 64.8975 104.353 65.6251 105.251 65.6251H108.552Z" fill="#000080"/>
<path d="M106.414 50.5227C106.821 50.3783 107.153 50.078 107.338 49.6877C107.523 49.2974 107.545 48.8498 107.399 48.4436C107.254 48.0373 106.952 47.7051 106.562 47.5215C106.171 47.3373 105.724 47.317 105.317 47.4635L102.215 48.5749C101.808 48.72 101.477 49.0203 101.293 49.4106C101.108 49.8002 101.086 50.2478 101.232 50.6533C101.377 51.0595 101.678 51.3911 102.068 51.5753C102.458 51.7589 102.905 51.7806 103.312 51.6348L106.414 50.5227Z" fill="#000080"/>
<path d="M95.601 39.5116C95.979 39.5124 96.3446 39.3803 96.6355 39.1395L99.1644 37.0495C99.8543 36.4771 99.95 35.4542 99.3791 34.7635C98.8082 34.0729 97.786 33.9742 97.0939 34.5444L94.565 36.6344C94.0369 37.0712 93.8396 37.7923 94.0717 38.4372C94.3039 39.0821 94.9154 39.5116 95.601 39.5116L95.601 39.5116Z" fill="#000080"/>
<path d="M83.8039 30.2194C84.1753 30.4378 84.6186 30.4995 85.0357 30.3907C85.4528 30.2818 85.8098 30.0112 86.0281 29.6398L87.6785 26.8244C87.8976 26.4522 87.9592 26.009 87.8511 25.5911C87.7423 25.1733 87.4725 24.8156 87.1003 24.5973C86.7274 24.3789 86.2835 24.318 85.8663 24.4275C85.4485 24.5363 85.0916 24.8076 84.8739 25.1805L83.2235 27.9952C82.7701 28.77 83.0299 29.7653 83.8039 30.2195L83.8039 30.2194Z" fill="#000080"/>
<path d="M71.1649 25.6174C71.9513 25.6166 72.6238 25.053 72.7624 24.2789L73.3355 21.0776L73.3362 21.0768C73.4131 20.6525 73.3181 20.215 73.0714 19.8603C72.8255 19.5055 72.4482 19.264 72.0232 19.1878C71.5988 19.1116 71.1606 19.2074 70.8066 19.4547C70.4533 19.7014 70.2117 20.0794 70.137 20.5045L69.5639 23.7058H69.5632C69.479 24.1795 69.6089 24.6663 69.9179 25.0356C70.227 25.4048 70.684 25.6174 71.1649 25.6174Z" fill="#000080"/>
<path d="M49.8908 27.4505C50.4226 27.4505 50.9202 27.1901 51.2242 26.7541C51.5282 26.3174 51.5993 25.7602 51.4157 25.2619L48.0294 16.0995C47.7182 15.258 46.7838 14.8277 45.9416 15.139C45.1001 15.4502 44.6699 16.3845 44.9811 17.2268L48.3667 26.3884C48.6025 27.0268 49.2111 27.4505 49.8908 27.4505V27.4505Z" fill="#000080"/>
<path d="M38.7207 31.825L32.3563 24.3572C31.7745 23.6738 30.7488 23.5919 30.0654 24.1737C29.3827 24.7555 29.3008 25.7813 29.8826 26.4646L36.2462 33.9331C36.8287 34.6165 37.8545 34.6985 38.5372 34.116C39.2205 33.5342 39.3025 32.5084 38.7207 31.825L38.7207 31.825Z" fill="#000080"/>
<path d="M18.2886 38.0092C17.8454 38.7891 18.1181 39.7815 18.898 40.2248L27.472 45.0998C27.847 45.3138 28.291 45.3704 28.7074 45.2565C29.1238 45.1419 29.4771 44.8677 29.6904 44.4919C29.9036 44.1168 29.9595 43.6728 29.8449 43.2565C29.7295 42.8408 29.4539 42.4875 29.0788 42.2749L20.5048 37.3999C20.1298 37.1866 19.6858 37.1308 19.2701 37.2447C18.8545 37.3593 18.5012 37.6342 18.2886 38.0093L18.2886 38.0092Z" fill="#000080"/>
<path d="M12.0243 54.9742C11.8705 55.8585 12.4632 56.6993 13.3475 56.8531L23.0974 58.5463C23.1895 58.5622 23.2831 58.5709 23.3774 58.5709C24.2204 58.5695 24.9226 57.9238 24.9944 57.0838C25.0663 56.2437 24.4837 55.4885 23.6531 55.3442L13.9032 53.651C13.0196 53.5001 12.1802 54.0913 12.0243 54.9742L12.0243 54.9742Z" fill="#000080"/>
<path d="M12.0243 73.0256C12.1592 73.804 12.8339 74.372 13.6231 74.3734C13.7175 74.3734 13.811 74.3647 13.9032 74.3488L23.6531 72.6556C24.0782 72.5823 24.4569 72.3429 24.705 71.9904C24.9538 71.6378 25.0518 71.2011 24.9778 70.776C24.9038 70.3516 24.6644 69.9729 24.3118 69.7248C23.9593 69.4767 23.5218 69.3795 23.0974 69.4535L13.3475 71.1467C12.4632 71.3005 11.8705 72.1413 12.0243 73.0255L12.0243 73.0256Z" fill="#000080"/>
<path d="M18.2886 89.9908C18.5019 90.3658 18.8545 90.6408 19.2701 90.7547C19.6858 90.8693 20.1298 90.8134 20.5048 90.6001L29.0788 85.7251C29.8565 85.2804 30.1278 84.2902 29.6846 83.5111C29.2421 82.7319 28.2518 82.4592 27.472 82.9002L18.898 87.7752C18.1181 88.2185 17.8454 89.2109 18.2886 89.9908L18.2886 89.9908Z" fill="#000080"/>
<path d="M38.5393 93.8833C38.2107 93.604 37.7856 93.4655 37.3554 93.5003C36.926 93.5344 36.527 93.7382 36.2477 94.0669L29.884 101.535C29.3022 102.219 29.3842 103.245 30.0669 103.826C30.7502 104.408 31.776 104.326 32.3578 103.643L38.7214 96.1743L38.7222 96.175C39.304 95.4917 39.222 94.4659 38.5394 93.8833L38.5393 93.8833Z" fill="#000080"/>
<path d="M48.0289 111.901L51.4152 102.739C51.7257 101.897 51.2955 100.962 50.454 100.651C49.6125 100.34 48.6774 100.771 48.3662 101.612L44.9807 110.774C44.8312 111.179 44.8486 111.625 45.0285 112.017C45.2092 112.408 45.5371 112.712 45.9412 112.862C46.7834 113.173 47.7178 112.743 48.0289 111.901L48.0289 111.901Z" fill="#000080"/>
<path d="M62.3755 104.625V114.375C62.3755 115.272 63.1031 116 64.0005 116C64.8978 116 65.6255 115.272 65.6255 114.375V104.625C65.6255 103.728 64.8978 103 64.0005 103C63.1031 103 62.3755 103.728 62.3755 104.625Z" fill="#000080"/>
<path d="M79.9713 111.901C80.2825 112.743 81.2169 113.173 82.0591 112.862C82.9006 112.55 83.3308 111.616 83.0196 110.774L79.6341 101.612C79.3228 100.771 78.3878 100.34 77.5463 100.651C76.7048 100.962 76.2738 101.897 76.5851 102.739L79.9713 111.901Z" fill="#000080"/>
<path d="M95.6434 103.642C96.2252 104.326 97.2509 104.408 97.9343 103.826C98.617 103.244 98.6989 102.218 98.1171 101.535L91.7535 94.0666C91.171 93.3832 90.1452 93.3012 89.4625 93.8838C88.7792 94.4656 88.6972 95.4913 89.279 96.1747L95.6434 103.642Z" fill="#000080"/>
<path d="M108.296 90.8135C109.034 90.8135 109.68 90.3173 109.869 89.6042C110.058 88.8911 109.743 88.1395 109.101 87.7753L100.527 82.9003C99.7474 82.4585 98.7565 82.7313 98.3139 83.5111C97.8707 84.2903 98.142 85.2812 98.9204 85.7252L107.494 90.6002C107.739 90.7395 108.015 90.8128 108.296 90.8135V90.8135Z" fill="#000080"/>
<path d="M114.377 74.3738C115.22 74.3724 115.922 73.7267 115.994 72.8867C116.066 72.0466 115.483 71.2914 114.653 71.147L104.903 69.4538C104.019 69.3008 103.178 69.8935 103.025 70.7771C102.871 71.6607 103.463 72.5022 104.347 72.6559L114.097 74.3491C114.189 74.3651 114.283 74.3738 114.377 74.3738L114.377 74.3738Z" fill="#000080"/>
<path d="M115.976 54.9743C115.822 54.09 114.98 53.498 114.097 53.6511L104.347 55.3443C103.516 55.4886 102.934 56.2438 103.005 57.0839C103.077 57.924 103.78 58.5696 104.623 58.5711C104.717 58.5711 104.81 58.5624 104.903 58.5464L114.652 56.8532C115.537 56.6994 116.129 55.8586 115.976 54.9743L115.976 54.9743Z" fill="#000080"/>
<path d="M109.711 38.0094C109.267 37.2288 108.276 36.9561 107.495 37.4L98.921 42.275C98.546 42.4876 98.2703 42.8409 98.155 43.2566C98.0404 43.673 98.0962 44.117 98.3095 44.492C98.5228 44.8678 98.8761 45.142 99.2925 45.2566C99.7089 45.3705 100.153 45.3139 100.528 45.0999L109.102 40.2249C109.882 39.7817 110.155 38.7893 109.711 38.0094L109.711 38.0094Z" fill="#000080"/>
<path d="M97.9333 24.1738C97.6054 23.8938 97.1796 23.7559 96.7494 23.7907C96.3199 23.8248 95.9217 24.0287 95.6424 24.3573L89.2787 31.8258L89.278 31.8251C88.6962 32.5085 88.7782 33.5342 89.4616 34.1161C90.1442 34.6986 91.17 34.6166 91.7525 33.9332L98.1161 26.4647C98.6979 25.7814 98.616 24.7563 97.9333 24.1738L97.9333 24.1738Z" fill="#000080"/>
<path d="M82.0587 15.1388C81.2164 14.8283 80.2821 15.2585 79.9709 16.0993L76.5846 25.2617C76.4352 25.6658 76.4526 26.1127 76.6332 26.5044C76.8131 26.8962 77.1417 27.2001 77.5458 27.3496C78.3873 27.6608 79.3224 27.2299 79.6336 26.3884L83.0191 17.2267C83.1686 16.8219 83.1512 16.375 82.9713 15.9833C82.7914 15.5923 82.4627 15.2883 82.0587 15.1389L82.0587 15.1388Z" fill="#000080"/>
<path d="M64.0009 37.1866C57.9428 37.1837 52.1008 39.4376 47.6147 43.5096C43.1294 47.5815 40.3212 53.1782 39.7387 59.2082C39.1569 65.2381 40.8421 71.2694 44.4664 76.1241L44.6949 75.9587V70.1203C41.7924 63.5861 42.3924 56.027 46.2894 50.0316C50.1864 44.0373 56.8511 40.4201 64.001 40.4201C71.151 40.4201 77.8156 44.0373 81.7126 50.0316C85.6096 56.0266 86.2097 63.5857 83.3071 70.1203V75.958L83.5357 76.1234V76.1241C87.16 71.2694 88.8452 65.2381 88.2634 59.2082C87.6808 53.1782 84.8726 47.5815 80.3873 43.5096C75.9012 39.4376 70.0592 37.1838 64.0011 37.1865L64.0009 37.1866Z" fill="#000080"/>
<path d="M75.6142 91.6249C76.2751 91.6249 76.8707 91.2252 77.1195 90.6129C77.3691 90.0006 77.2225 89.2984 76.7503 88.837L65.6242 77.9727V67.9376C65.6525 67.2231 66.2408 66.658 66.9561 66.658C67.6714 66.658 68.259 67.2231 68.2873 67.9376V72.8481C68.2873 73.7455 69.0149 74.4731 69.9123 74.4731C70.8097 74.4731 71.5373 73.7455 71.5373 72.8481V67.9376C71.583 67.4538 71.5511 66.9663 71.443 66.4933L66.6811 53.1256C66.5346 52.7193 66.565 52.2703 66.7653 51.888C66.9756 51.4824 67.3471 51.1835 67.7881 51.0646C68.5419 50.8484 69.3456 51.1806 69.7272 51.8655L76.8052 65.028V78.4501C76.8052 78.9717 77.0555 79.4613 77.4784 79.7668L82.5471 83.4324C83.274 83.9583 84.2896 83.7951 84.8156 83.0675C85.3415 82.3406 85.1783 81.325 84.4514 80.799L80.0552 77.6194V64.6179C80.0552 64.3495 79.9885 64.0847 79.8615 63.8482L72.589 50.326C72.0304 49.2966 71.1236 48.5 70.0312 48.0785C68.9387 47.657 67.7323 47.6374 66.6267 48.0241C65.5219 48.4107 64.5904 49.1782 63.9992 50.1895C63.408 49.1782 62.4765 48.4107 61.3718 48.0241C60.2662 47.6374 59.0598 47.657 57.9673 48.0785C56.8748 48.5 55.9679 49.2965 55.4095 50.326L48.1369 63.8482C48.01 64.0847 47.9432 64.3495 47.9432 64.6179V77.6194L43.5478 80.799H43.5471C43.1967 81.0507 42.9602 81.4323 42.8905 81.8581C42.8216 82.2847 42.9246 82.7214 43.1778 83.0711C43.431 83.4215 43.8133 83.6565 44.2399 83.724C44.6664 83.7922 45.1024 83.687 45.4521 83.4324L50.5207 79.7667H50.52C50.9429 79.4613 51.1932 78.9716 51.1932 78.45V65.0279L58.2713 51.8654C58.6536 51.1806 59.4567 50.8491 60.2103 51.0645C60.6514 51.1835 61.0228 51.4824 61.2332 51.8879C61.4334 52.2702 61.4639 52.7193 61.3181 53.1255L56.5555 66.4932C56.4517 66.967 56.4198 67.4537 56.4611 67.9376V72.8481C56.4611 73.7454 57.1888 74.4731 58.0861 74.4731C58.9835 74.4731 59.7111 73.7454 59.7111 72.8481V67.9376C59.7394 67.223 60.327 66.6579 61.0423 66.6579C61.7576 66.6579 62.3459 67.223 62.3742 67.9376V77.9727L51.2482 88.8369C50.6062 89.4645 50.5938 90.4931 51.2213 91.1352C51.8481 91.7772 52.8768 91.7895 53.5195 91.1627L63.9993 80.929L74.4791 91.1627C74.7823 91.4594 75.19 91.6256 75.6144 91.6248L75.6142 91.6249ZM61.1032 63.4112L63.9992 55.2825L66.8952 63.4112C65.8353 63.4235 64.8117 63.8022 63.9992 64.4834C63.1867 63.8022 62.1631 63.4235 61.1032 63.4112Z" fill="#000080"/>
</svg>
