<svg width="128" height="128" viewBox="0 0 128 128" fill="none" xmlns="http://www.w3.org/2000/svg">
<path fill-rule="evenodd" clip-rule="evenodd" d="M64.7049 19C65.8095 19 66.7049 19.8954 66.7049 21V84.5833L81.3311 69.9572C82.1121 69.1762 83.3784 69.1762 84.1595 69.9572C84.9405 70.7383 84.9405 72.0046 84.1595 72.7856L66.1181 90.827C65.3371 91.608 64.0708 91.6081 63.2897 90.8271L45.2464 72.7857C44.4653 72.0047 44.4653 70.7384 45.2463 69.9573C46.0273 69.1762 47.2936 69.1761 48.0747 69.9571L62.7049 84.5858V21C62.7049 19.8954 63.6004 19 64.7049 19ZM14.9995 92.2775C16.1041 92.2775 16.9995 93.1729 16.9995 94.2775V105.372H112.38V94.2775C112.38 93.1729 113.275 92.2775 114.38 92.2775C115.485 92.2775 116.38 93.1729 116.38 94.2775V107.372C116.38 108.477 115.485 109.372 114.38 109.372H14.9995C13.8949 109.372 12.9995 108.477 12.9995 107.372V94.2775C12.9995 93.1729 13.8949 92.2775 14.9995 92.2775Z" fill="#000080"/>
</svg>
