<svg width="128" height="128" viewBox="0 0 128 128" fill="none" xmlns="http://www.w3.org/2000/svg">
<path d="M111.349 29.755C111.786 29.755 112.206 29.9298 112.515 30.241C112.825 30.5521 112.998 30.9741 112.998 31.4142C112.998 31.8542 112.825 32.2763 112.515 32.5874C112.206 32.8986 111.786 33.0734 111.349 33.0734H53.6216C53.2245 35.7838 51.8716 38.2602 49.8099 40.0507C47.7481 41.8412 45.1149 42.8263 42.3909 42.8263C39.6668 42.8263 37.0337 41.8412 34.9719 40.0507C32.9101 38.2602 31.5572 35.7838 31.1601 33.0734H15.6497C15.2122 33.0734 14.7926 32.8986 14.4832 32.5874C14.1738 32.2763 14 31.8542 14 31.4142C14 30.9741 14.1738 30.5521 14.4832 30.241C14.7926 29.9298 15.2122 29.755 15.6497 29.755H31.1601C31.5572 27.0446 32.9101 24.5682 34.9719 22.7777C37.0337 20.9872 39.6668 20.0021 42.3909 20.0021C45.1149 20.0021 47.7481 20.9872 49.8099 22.7777C51.8716 24.5682 53.2245 27.0446 53.6216 29.755H111.349ZM42.3916 107C39.667 107 37.0332 106.015 34.9711 104.223C32.9091 102.432 31.5564 99.9548 31.1601 97.2437H15.6497C15.2122 97.2437 14.7926 97.0689 14.4832 96.7577C14.1738 96.4465 14 96.0245 14 95.5845C14 95.1444 14.1738 94.7224 14.4832 94.4112C14.7926 94.1001 15.2122 93.9252 15.6497 93.9252H31.1601C31.5561 91.2138 32.9086 88.736 34.9706 86.9444C37.0327 85.1529 39.6667 84.1671 42.3916 84.1671C45.1166 84.1671 47.7506 85.1529 49.8126 86.9444C51.8747 88.736 53.2272 91.2138 53.6232 93.9252H111.35C111.788 93.9252 112.207 94.1001 112.517 94.4112C112.826 94.7224 113 95.1444 113 95.5845C113 96.0245 112.826 96.4465 112.517 96.7577C112.207 97.0689 111.788 97.2437 111.35 97.2437H53.6232C53.2268 99.9548 51.8742 102.432 49.8121 104.223C47.7501 106.015 45.1163 107 42.3916 107ZM36.7071 101.309C38.024 102.633 39.7565 103.457 41.6094 103.64C43.4623 103.823 45.321 103.354 46.8689 102.313C48.4167 101.273 49.5579 99.7246 50.098 97.9326C50.6382 96.1406 50.5439 94.2157 49.8311 92.4858C49.1184 90.7559 47.8313 89.3281 46.1892 88.4456C44.5471 87.5631 42.6516 87.2805 40.8256 87.6459C38.9996 88.0114 37.356 89.0023 36.1749 90.4498C34.9939 91.8973 34.3483 93.7119 34.3484 95.5845C34.347 96.648 34.5547 97.7012 34.9595 98.6837C35.3643 99.6662 35.9583 100.559 36.7071 101.309ZM84.6084 71.5973C86.471 71.5973 88.2761 70.9477 89.7159 69.7591C91.1557 68.5706 92.1413 66.9168 92.5046 65.0794C92.8678 63.242 92.5864 61.3347 91.7082 59.6826C90.8301 58.0305 89.4095 56.7357 87.6885 56.019C85.9675 55.3022 84.0527 55.2078 82.2703 55.7518C80.4879 56.2958 78.9482 57.4446 77.9135 59.0023C76.8788 60.5601 76.4132 62.4305 76.5961 64.2949C76.7789 66.1592 77.5988 67.9021 78.9161 69.2266C79.6631 69.9791 80.5505 70.5758 81.5273 70.9827C82.5041 71.3895 83.5511 71.5984 84.6084 71.5973ZM92.6408 71.5725C91.153 73.0701 89.2804 74.1223 87.2322 74.6113C85.1841 75.1002 83.0411 75.0069 81.0427 74.3415C79.0443 73.6762 77.2693 72.4651 75.9158 70.8436C74.5623 69.2221 73.6838 67.254 73.3784 65.1593H15.6513C15.2137 65.1593 14.7941 64.9845 14.4847 64.6734C14.1754 64.3622 14.0015 63.9402 14.0015 63.5001C14.0015 63.0601 14.1754 62.638 14.4847 62.3269C14.7941 62.0157 15.2137 61.8409 15.6513 61.8409H73.3784C73.7755 59.1305 75.1283 56.6541 77.1901 54.8636C79.2519 53.0731 81.8851 52.088 84.6091 52.088C87.3331 52.088 89.9663 53.0731 92.0281 54.8636C94.0899 56.6541 95.4428 59.1305 95.8399 61.8409H111.35C111.788 61.8409 112.207 62.0157 112.517 62.3269C112.826 62.638 113 63.0601 113 63.5001C113 63.9402 112.826 64.3622 112.517 64.6734C112.207 64.9845 111.788 65.1593 111.35 65.1593H95.8399C95.4882 67.5909 94.3638 69.8428 92.6346 71.5787L92.6408 71.5725ZM36.7071 37.1407C38.024 38.4644 39.7565 39.2879 41.6094 39.471C43.4623 39.6541 45.321 39.1854 46.8689 38.1447C48.4167 37.1041 49.5579 35.5559 50.098 33.7639C50.6382 31.9719 50.5439 30.047 49.8311 28.3171C49.1184 26.5872 47.8313 25.1594 46.1892 24.2769C44.5471 23.3944 42.6516 23.1118 40.8256 23.4772C38.9996 23.8427 37.356 24.8336 36.1749 26.2811C34.9939 27.7286 34.3483 29.5432 34.3484 31.4158C34.3475 32.4792 34.5555 33.5323 34.9602 34.5147C35.365 35.4971 35.9587 36.3895 36.7071 37.1407Z" fill="#000080"/>
</svg>
