<?xml version="1.0" encoding="utf-8"?>
<!-- Generator: Adobe Illustrator 26.2.1, SVG Export Plug-In . SVG Version: 6.00 Build 0)  -->
<svg version="1.1" id="Layer_1" xmlns="http://www.w3.org/2000/svg" xmlns:xlink="http://www.w3.org/1999/xlink" x="0px" y="0px"
	 viewBox="0 0 128 128" style="enable-background:new 0 0 128 128;" xml:space="preserve">
<style type="text/css">
	.st0{fill-rule:evenodd;clip-rule:evenodd;fill:#000080;}
</style>
<path class="st0" d="M106.8,35.5H65.1L52.8,23.2C52,22.4,51,22,49.9,22H21.2c-2.2,0-4,1.8-4,4v73.5c0,2.2,1.8,4,4,4h85.5
	c2.2,0,4-1.8,4-4v-60C110.8,37.3,109,35.5,106.8,35.5z M106.8,99.5H21.2V52h85.5V99.5z M106.8,48H21.2V26h28.7l12.3,12.3
	c0.8,0.8,1.8,1.2,2.8,1.2h41.7V48z"/>
</svg>
