<?xml version="1.0" encoding="utf-8"?>
<!-- Generator: Adobe Illustrator 26.2.1, SVG Export Plug-In . SVG Version: 6.00 Build 0)  -->
<svg version="1.1" id="Layer_1" xmlns="http://www.w3.org/2000/svg" xmlns:xlink="http://www.w3.org/1999/xlink" x="0px" y="0px"
	 viewBox="0 0 128 128" style="enable-background:new 0 0 128 128;" xml:space="preserve">
<style type="text/css">
	.st0{fill-rule:evenodd;clip-rule:evenodd;fill:#000080;}
</style>
<path class="st0" d="M113.9,50.7h-13.3V42c0-2.1-1.7-3.8-3.8-3.8H61.5l-4.3-10.8C56.7,26,55.3,25,53.7,25H14.1
	c-2.1,0-3.8,1.7-3.8,3.8v67.5c0,2.1,1.7,3.8,3.8,3.8h15.7h66.6c1.5,0,2.9-0.9,3.5-2.3L117.4,56C118.5,53.4,116.7,50.7,113.9,50.7z
	 M14.1,28.8h39.6L58,39.6c0.6,1.5,2,2.4,3.5,2.4h35.3v8.6H32.1c-1.5,0-2.9,0.9-3.5,2.4L14.1,88.5V28.8z M96.4,96.3H15l17.1-41.8
	h81.8L96.4,96.3z"/>
</svg>
