<svg width="128" height="128" viewBox="0 0 128 128" fill="none" xmlns="http://www.w3.org/2000/svg">
<path d="M46.7475 107.367C49.0751 108.385 51.6047 109.199 54.0331 109.81L53.1224 113.778C50.3903 113.168 47.6582 112.252 45.1286 111.132L46.7475 107.367ZM106.953 65.0339L111 64.8301C110.797 61.9809 110.393 59.1318 109.786 56.3842L105.839 57.4015C106.346 59.8447 106.75 62.49 106.953 65.0339L106.953 65.0339ZM22.6662 79.7893L18.8215 80.909C19.6313 83.6566 20.6429 86.3019 21.8571 88.8466L25.4999 87.0148C24.3865 84.674 23.3742 82.3332 22.666 79.7894L22.6662 79.7893ZM24.4876 93.4252C26.0055 95.7661 27.7252 98.0046 29.7493 100.142L32.6833 97.3941C30.9629 95.4609 29.344 93.4254 27.9279 91.2883L24.4876 93.4252ZM91.7765 29.5202C89.5507 27.8923 87.1221 26.3659 84.5925 25.1446L82.7711 28.808C85.0987 29.9277 87.3246 31.2504 89.3479 32.7767L91.7765 29.5202ZM21.2499 72.2595L21.0473 68.6983L17 68.9021L17.2026 72.5656C17.3036 73.583 17.4053 74.7026 17.6071 75.72L21.5534 75.0079C21.4517 74.0912 21.2499 73.1754 21.2499 72.2595H21.2499ZM104.322 52.7216L108.167 51.2966C107.155 48.6506 105.941 46.1066 104.524 43.6643L101.084 45.6999C102.299 47.9384 103.411 50.2792 104.322 52.7216V52.7216ZM79.7339 23.1107C77.1028 22.1949 74.3714 21.4828 71.5376 20.9738L70.9304 24.9425C73.46 25.3493 75.9894 25.9598 78.418 26.8757L79.7339 23.1107ZM33.4913 103.806C35.6162 105.638 37.943 107.266 40.3716 108.691L42.3958 105.13C40.1699 103.807 38.0448 102.281 36.1226 100.653L33.4913 103.806ZM101.285 89.2542L104.826 91.2899C106.243 88.8475 107.457 86.2022 108.367 83.5561L104.523 82.2335C103.612 84.6759 102.499 87.0159 101.285 89.2544L101.285 89.2542ZM93.494 99.1251L96.2261 102.076C98.2502 100.143 100.172 98.0056 101.791 95.7671L98.5537 93.3247C97.1368 95.4617 95.3154 97.3949 93.494 99.1253V99.1251ZM98.3512 41.7324L101.589 39.29C99.8682 37.0515 97.9459 34.9143 95.9226 32.9812L93.1905 35.9319C95.0119 37.6622 96.7323 39.5962 98.3512 41.7326V41.7324ZM106.952 69.92C106.851 72.464 106.446 75.11 105.839 77.6538L109.785 78.5696C110.392 75.822 110.797 72.9729 110.999 70.1237L106.952 69.92ZM58.8887 110.624L58.3825 114.695C60.204 114.899 62.1263 115 63.9477 115C64.8584 115 65.8701 115 66.7808 114.898L66.5781 110.828C64.0494 111.031 61.4182 110.93 58.8887 110.624H58.8887ZM71.3351 110.319L72.0431 114.288C74.7752 113.779 77.6083 113.067 80.2394 112.049L78.8225 108.183C76.3939 109.199 73.8646 109.912 71.335 110.319H71.3351ZM83.2743 106.35L85.0958 110.014C87.6253 108.793 90.0537 107.266 92.2798 105.537L89.8512 102.281C87.7269 103.908 85.5002 105.232 83.2744 106.35H83.2743ZM52.9183 30.7443C52.3112 31.6601 52.5138 32.9828 53.5255 33.5934C53.829 33.7972 54.2335 33.8987 54.6388 33.8987C55.2459 33.8987 55.954 33.5934 56.3593 32.9828L63.0379 22.9091C63.645 21.9932 63.4424 20.6705 62.4307 20.0599L52.4138 13.3434C51.5031 12.7328 50.188 12.9366 49.5808 13.954C48.9736 14.8698 49.1763 16.1925 50.1879 16.8031L56.461 20.9749C35.7169 24.4353 19.3254 41.633 17.1988 62.7987L21.246 63.2055C23.2702 43.9728 37.9415 28.3017 56.7618 25.1475L52.9183 30.7443ZM92.28 63.6132V72.1607C92.28 74.9083 90.0541 77.0455 87.4228 77.0455H73.1559V91.3933C73.1559 94.141 70.93 96.2781 68.2987 96.2781H59.7994C57.0673 96.2781 54.9422 94.0396 54.9422 91.3933L54.943 77.0455H40.6753C37.9432 77.0455 35.8181 74.8069 35.8181 72.1607V63.6132C35.8181 60.8656 38.044 58.7285 40.6753 58.7285H54.9422L54.943 44.3806C54.943 41.633 57.1689 39.4958 59.8002 39.4958H68.2994C71.0315 39.4958 73.1566 41.7343 73.1566 44.3806V58.7285H87.322C90.0541 58.627 92.2799 60.8654 92.2799 63.6132H92.28ZM88.2327 63.6132C88.2327 63.1041 87.8282 62.7989 87.4229 62.7989H69.1085V44.3805C69.1085 43.8714 68.704 43.5662 68.2988 43.5662H59.7996C59.2934 43.5662 58.9898 43.973 58.9898 44.3805V62.7989H40.6754C40.1692 62.7989 39.8656 63.2057 39.8656 63.6132V72.1607C39.8656 72.6698 40.2701 72.975 40.6754 72.975H58.9898V91.3934C58.9898 91.9025 59.3943 92.2078 59.7996 92.2078H68.2988C68.805 92.2078 69.1085 91.8009 69.1085 91.3934V72.975H87.322C87.8282 72.975 88.1317 72.5682 88.1317 72.1607V63.6132H88.2327Z" fill="#000080"/>
</svg>
