<svg width="128" height="128" viewBox="0 0 128 128" fill="none" xmlns="http://www.w3.org/2000/svg">
<path fill-rule="evenodd" clip-rule="evenodd" d="M25.3877 27.6685C26.1231 28.4927 26.0511 29.757 25.2269 30.4923C4.54425 48.9462 3.36878 80.9016 22.6397 100.825L25.3329 103.61C26.1008 104.403 26.0798 105.67 25.2858 106.438C24.4919 107.206 23.2257 107.184 22.4578 106.39L19.7646 103.606C-1.0861 82.0492 0.185727 47.4743 22.5638 27.5077C23.388 26.7723 24.6523 26.8443 25.3877 27.6685ZM71.125 67C71.125 70.935 67.9351 74.125 64 74.125C60.065 74.125 56.875 70.935 56.875 67C56.875 63.065 60.065 59.875 64 59.875C67.9351 59.875 71.125 63.065 71.125 67ZM40.4888 41.3079C41.4222 40.7174 41.7003 39.4819 41.1098 38.5485C40.5193 37.615 39.2839 37.3369 38.3504 37.9274C17.8933 50.8679 16.8834 80.3436 36.407 94.6539L38.2372 95.9954C39.1281 96.6484 40.3797 96.4556 41.0327 95.5647C41.6857 94.6738 41.4928 93.4222 40.6019 92.7692L38.7717 91.4277C21.5219 78.7841 22.4142 52.7413 40.4888 41.3079ZM55.5235 50.0929C55.9108 51.1273 55.3861 52.2799 54.3517 52.6672C41.4697 57.4899 41.0085 75.5417 53.6275 81.0158L54.4464 81.3711C55.4597 81.8107 55.9248 82.9885 55.4852 84.0018C55.0457 85.0151 53.8678 85.4803 52.8545 85.0407L52.0356 84.6854C36.1157 77.7793 36.6974 55.0054 52.9492 48.9211C53.9837 48.5338 55.1362 49.0584 55.5235 50.0929ZM102.773 103.508C101.949 104.243 101.877 105.507 102.612 106.332C103.348 107.156 104.612 107.228 105.436 106.492C127.814 86.5257 129.086 51.9508 108.235 30.394L105.542 27.6095C104.774 26.8156 103.508 26.7945 102.714 27.5624C101.92 28.3304 101.899 29.5965 102.667 30.3905L105.36 33.1749C124.631 53.0985 123.456 85.0538 102.773 103.508ZM86.8902 95.4516C86.2998 94.5181 86.5778 93.2826 87.5113 92.6922C105.586 81.2587 106.478 55.2159 89.2284 42.5723L87.3981 41.2308C86.5072 40.5778 86.3144 39.3262 86.9674 38.4353C87.6204 37.5444 88.8719 37.3516 89.7628 38.0046L91.5931 39.3461C111.117 53.6564 110.107 83.1321 89.6496 96.0726C88.7162 96.6631 87.4807 96.385 86.8902 95.4516ZM73.6484 81.3329C72.6139 81.7201 72.0893 82.8727 72.4766 83.9071C72.8638 84.9416 74.0164 85.4662 75.0508 85.0789C91.3026 78.9946 91.8844 56.2207 75.9644 49.3146L75.1455 48.9593C74.1322 48.5198 72.9544 48.9849 72.5148 49.9982C72.0752 51.0115 72.5403 52.1893 73.5537 52.6289L74.3725 52.9842C86.9915 58.4583 86.5304 76.5101 73.6484 81.3329Z" fill="#000080"/>
</svg>
