<svg width="128" height="128" viewBox="0 0 128 128" fill="none" xmlns="http://www.w3.org/2000/svg">
<path fill-rule="evenodd" clip-rule="evenodd" d="M88.7101 27.73V11H92.7101V27.73H109.44V31.73H92.7101V48.45H88.7101V31.73H71.9703V27.73H88.7101ZM62.833 23.2636C43.2217 20.965 27.6157 32.0248 24.1962 49.1905C20.7937 66.271 29.5944 88.56 56.7223 108.852L57.9263 109.752L59.1259 108.846C63.9408 105.208 71.9608 97.9207 79.0513 88.901C86.1103 79.9214 92.4546 68.9653 93.5306 58.0156L89.5498 57.6244C88.5858 67.4347 82.8051 77.6536 75.9066 86.429C69.606 94.4438 62.5453 101.038 57.9049 104.73C32.4452 85.2249 25.1779 64.737 28.1192 49.972C31.0897 35.0602 44.6087 25.155 62.3674 27.2364L62.833 23.2636ZM67.2802 57.82C67.2802 62.9894 63.0896 67.18 57.9202 67.18C52.7508 67.18 48.5602 62.9894 48.5602 57.82C48.5602 52.6506 52.7508 48.46 57.9202 48.46C63.0896 48.46 67.2802 52.6506 67.2802 57.82Z" fill="#000080"/>
</svg>
