<?xml version="1.0" encoding="utf-8"?>
<!-- Generator: Adobe Illustrator 26.2.1, SVG Export Plug-In . SVG Version: 6.00 Build 0)  -->
<svg version="1.1" id="Layer_1" xmlns="http://www.w3.org/2000/svg" xmlns:xlink="http://www.w3.org/1999/xlink" x="0px" y="0px"
	 viewBox="0 0 128 128" style="enable-background:new 0 0 128 128;" xml:space="preserve">
<style type="text/css">
	.st0{fill-rule:evenodd;clip-rule:evenodd;fill:#000080;}
</style>
<path class="st0" d="M110.7,25.3H17.3c-3.3,0-6,2.7-6,6v65.4c0,3.3,2.7,6,6,6h93.4c3.3,0,6-2.7,6-6V31.3
	C116.7,28,114,25.3,110.7,25.3z M110.7,29.3c0.2,0,0.4,0,0.6,0.1L62.3,62L18.9,29.3H110.7z M112.7,96.7c0,1.1-0.9,2-2,2H17.3
	c-1.1,0-2-0.9-2-2V31.6L61,66.1l1.1,0.9l1.2-0.8l49.4-32.9V96.7z"/>
</svg>
