<svg width="128" height="128" viewBox="0 0 128 128" fill="none" xmlns="http://www.w3.org/2000/svg">
<path d="M91.0416 86.2494H77.7701C76.2627 86.251 74.8176 86.8508 73.7517 87.9167C72.6849 88.9827 72.0859 90.4278 72.0835 91.936V105.208L24.689 105.207C23.6422 105.206 22.7938 104.357 22.793 103.311V35.0613C22.7946 34.0153 23.643 33.1676 24.689 33.1668H43.6464V29.3748H24.689C23.1808 29.3756 21.7349 29.9754 20.6681 31.0413C19.6022 32.1073 19.0024 33.5532 19 35.0614V103.311C19.0016 104.819 19.6014 106.266 20.6681 107.332C21.7341 108.399 23.1807 108.998 24.689 109H73.9772C74.4802 109 74.9624 108.8 75.3183 108.444L94.2757 89.4861C94.6315 89.131 94.8314 88.6488 94.8314 88.1458V76.7703H91.0409L91.0416 86.2494ZM75.874 102.525V91.9359C75.8764 90.8899 76.724 90.0422 77.77 90.0414H88.3602L75.874 102.525ZM104.312 18.0008H51.2299C49.7217 18.0032 48.2758 18.6029 47.209 19.6689C46.1423 20.7357 45.5425 22.1814 45.5409 23.6898V86.2501C45.5409 87.017 46.0031 87.7079 46.7116 88.0014C47.4202 88.2949 48.2358 88.1325 48.7781 87.5904L59.8274 76.5402V76.541C60.8966 75.4782 62.3407 74.8793 63.8483 74.8745H104.311C105.819 74.8737 107.265 74.2739 108.331 73.2079C109.398 72.142 109.998 70.696 110 69.1879V23.6889C109.998 22.1807 109.399 20.734 108.332 19.668C107.266 18.6012 105.819 18.0015 104.311 17.9999L104.312 18.0008ZM106.208 69.1889C106.207 70.2357 105.358 71.0841 104.312 71.0849H63.8488C61.3338 71.0793 58.9204 72.0789 57.1467 73.8621L49.3338 81.6751V23.6903C49.3354 22.6435 50.1839 21.795 51.2306 21.7942H104.312H104.311C105.358 21.795 106.207 22.6435 106.208 23.6903L106.208 69.1889ZM93.048 41.7073L75.2375 29.836C74.0907 29.0699 72.7041 28.7477 71.3365 28.9284C69.9691 29.1091 68.7143 29.7809 67.8051 30.818C66.8967 31.856 66.3953 33.1883 66.3961 34.5669V58.3144C66.3953 59.6938 66.8959 61.0261 67.8051 62.0632C68.7136 63.1012 69.969 63.7729 71.3365 63.9536C72.7041 64.1344 74.0906 63.8113 75.2375 63.046L93.048 51.1714C94.6306 50.1175 95.5814 48.3414 95.5814 46.4398C95.5814 44.5381 94.6306 42.7628 93.048 41.7081V41.7073ZM90.9456 48.0176L73.135 59.8897C72.5536 60.2767 71.8059 60.3127 71.1902 59.9832C70.5736 59.6538 70.189 59.0116 70.1882 58.3135V34.566C70.1794 33.8647 70.5664 33.217 71.1902 32.8947C71.4693 32.7443 71.7811 32.6636 72.0978 32.6604C72.4689 32.6628 72.8303 32.7771 73.135 32.9899L90.9447 44.862C91.4717 45.2138 91.7884 45.8056 91.7884 46.4397C91.7884 47.0731 91.4717 47.6649 90.9447 48.0167L90.9456 48.0176Z" fill="#000080"/>
</svg>
