<svg width="128" height="128" viewBox="0 0 128 128" fill="none" xmlns="http://www.w3.org/2000/svg">
<path d="M58.1885 79.1676C55.7882 92.1111 52.863 104.519 44.188 111C41.5139 91.439 48.1171 76.7518 51.1883 61.1576C45.954 52.0868 51.818 33.8418 62.8477 38.3396C76.4238 43.8666 51.0924 72.0472 68.0956 75.5722C85.8518 79.2428 93.0984 43.8478 82.087 32.3378C66.1836 15.7095 35.7868 31.9477 39.5288 55.7527C40.4369 61.5712 46.2735 63.3336 41.8607 71.3658C31.6798 69.044 28.6405 60.7722 29.033 49.7462C29.6627 31.6986 44.7721 19.07 59.9317 17.3169C79.1025 15.1033 97.096 24.5688 99.583 43.1382C102.38 64.1044 90.9308 86.8143 70.4275 85.1788C64.8693 84.7323 62.542 81.8935 58.1885 79.1676Z" fill="#000080"/>
</svg>
