<svg width="128" height="128" viewBox="0 0 128 128" fill="none" xmlns="http://www.w3.org/2000/svg">
<path d="M64 19C39.1715 19 19 39.1715 19 64C19 88.8285 39.1715 109 64 109C88.8285 109 109 88.8285 109 64C109 39.1715 88.8285 19 64 19ZM52.5898 43.4815C52.654 43.4787 52.7182 43.4787 52.7817 43.4815C53.1199 43.4922 53.4495 43.5914 53.7405 43.7697L69.0815 53.0061L84.4224 62.2102C85.028 62.5869 85.399 63.2668 85.399 64.0002C85.399 64.7335 85.0281 65.4134 84.4224 65.7901L69.0815 74.9943L53.7405 84.2306C53.1177 84.6015 52.3516 84.5987 51.7316 84.2227C51.1117 83.8468 50.7321 83.1555 50.7364 82.4093V45.5911C50.7215 44.4896 51.5333 43.5657 52.5898 43.4815L52.5898 43.4815Z" fill="#000080"/>
</svg>
