<svg width="128" height="128" viewBox="0 0 128 128" fill="none" xmlns="http://www.w3.org/2000/svg">
<path fill-rule="evenodd" clip-rule="evenodd" d="M72.2917 14.321C74.9285 26.8275 74.9285 26.8275 74.3162 27.5696L73.0238 26.5761L72.9681 26.5266L71.3727 26.6158C71.3058 25.9531 70.1212 20.1366 69.0285 14.9962C68.8408 14.0998 69.4188 13.2218 70.32 13.0351C71.2213 12.8484 72.104 13.4242 72.2916 14.3207L72.2917 14.321ZM56.9484 23.3016C56.1763 22.8044 55.144 23.0243 54.6441 23.7923C54.1433 24.5603 54.3645 25.5871 55.1366 26.0843L63.8881 31.7153C64.152 31.89 64.4632 31.9824 64.78 31.9806C65.3226 31.963 65.8216 31.6802 66.1124 31.2246C66.3531 30.8558 66.4367 30.4076 66.3438 29.977C66.2518 29.5472 65.9907 29.172 65.62 28.9326L56.9484 23.3016ZM19.8393 91.4433C19.7111 91.2899 19.6117 91.1143 19.5457 90.9257L9.15726 59.0631C8.87761 58.1962 9.35332 57.2674 10.223 56.9837L27.726 51.3129C28.145 51.1807 28.6003 51.2186 28.9914 51.4182C29.3882 51.6141 29.6874 51.9644 29.8165 52.3858L30.5626 54.6251L36.0509 52.8497L41.3785 46.3843C44.4333 42.6828 48.4854 39.9251 53.0604 38.4344L71.2017 32.6841C72.7459 32.1906 74.423 32.3246 75.8687 33.0575C77.3136 33.7892 78.4081 35.0601 78.9145 36.5933C79.2211 37.5053 79.2982 38.4785 79.1412 39.4276V39.4285L92.9936 34.9499C94.4457 34.4851 96.0234 34.6098 97.3837 35.2974C98.7429 35.9849 99.7742 37.1791 100.253 38.6198C100.516 39.4175 100.597 40.264 100.492 41.0976L101.212 40.8592C102.739 40.3638 104.402 40.4932 105.834 41.2168C107.27 41.9377 108.356 43.2029 108.844 44.7278C109.012 45.2463 109.101 45.786 109.111 46.3303C110.773 45.7361 112.612 45.8923 114.148 46.7573C115.685 47.6223 116.765 49.1111 117.108 50.8337C117.451 52.5563 117.021 54.3429 115.931 55.7245C116.814 56.2143 117.557 56.9213 118.088 57.778C118.88 59.0894 119.121 60.6587 118.759 62.1457C118.398 63.6327 117.463 64.9192 116.157 65.7269L109.257 69.9273C109.752 70.2896 110.177 70.7387 110.509 71.2517C111.227 72.4161 111.448 73.8171 111.125 75.1442C110.803 76.4713 109.963 77.6164 108.791 78.3271L80.9907 95.219C75.5193 98.5553 69.007 99.7762 62.6897 98.6505L57.9076 101.565L58.8404 103.089C59.0764 103.459 59.1489 103.91 59.0402 104.334C58.9454 104.767 58.6751 105.141 58.2941 105.368L42.5101 114.762C42.2472 114.915 41.9489 114.997 41.6442 115C41.0616 115.004 40.5199 114.701 40.2189 114.205V114.204L25.6335 90.4886L21.6372 91.8139C21.4691 91.8656 21.2944 91.8924 21.1178 91.8934C20.9692 91.8906 20.8214 91.8684 20.6784 91.8268H20.3727H20.3058C20.1757 91.7584 20.0586 91.6688 19.9592 91.5625C19.9155 91.5255 19.8756 91.4858 19.8393 91.4433ZM52.5128 103.645C52.5128 102.73 53.2579 101.989 54.1778 101.989L54.2717 102.015L50.0487 95.1391C49.5275 94.8591 49.1977 94.324 49.1828 93.7353L48.0901 91.9332C47.908 92.0052 47.7138 92.0459 47.5178 92.0524C47.0737 92.0524 46.6481 91.8759 46.3359 91.5626C46.0228 91.2493 45.8491 90.8241 45.8528 90.3833C45.8556 89.9221 46.0535 89.4841 46.3991 89.1773L45.6001 87.852C45.3158 88.364 44.7759 88.6837 44.1878 88.6874C43.3246 88.6384 42.6426 87.9398 42.6185 87.0803C42.5934 86.2208 43.2354 85.4852 44.0948 85.3881H44.0939L39.7252 78.2997C39.5208 78.1038 39.374 77.857 39.2996 77.5844L37.315 78.7904H37.5278C38.2014 78.7904 38.8081 79.1934 39.0664 79.8126C39.3238 80.4318 39.1816 81.1434 38.705 81.6175C38.2293 82.0907 37.5129 82.233 36.8904 81.9761C36.2688 81.7201 35.8628 81.1157 35.8628 80.4466C35.8712 80.112 35.9827 79.7876 36.1824 79.5187L29.2027 83.7718C29.1674 84.6554 28.4399 85.355 27.5508 85.3614C27.2962 85.355 27.0453 85.2921 26.8186 85.1766L26.4061 85.428L28.6703 89.1247C28.8794 89.3215 29.0346 89.5674 29.1228 89.84L30.4552 92.0654C30.5853 92.0256 30.7191 91.9988 30.8547 91.9859C31.5088 91.9813 32.1044 92.362 32.3729 92.9554C32.6405 93.5495 32.5309 94.2442 32.0936 94.7285L32.8654 96.0532C33.172 95.6235 33.6681 95.3665 34.1978 95.3647C34.6391 95.3647 35.0628 95.5394 35.375 95.8499C35.6871 96.1604 35.8628 96.5818 35.8628 97.0208C35.8525 97.823 35.2616 98.5013 34.4644 98.6242L40.6311 108.614H40.8578C41.3066 108.617 41.7349 108.8 42.0462 109.122C42.3565 109.444 42.5237 109.877 42.5098 110.323C42.5033 110.658 42.3909 110.981 42.1902 111.25L49.1558 106.957C49.1558 106.043 49.9019 105.301 50.8208 105.301C51.1024 105.307 51.3774 105.385 51.6199 105.527L52.9523 104.732C52.6735 104.437 52.5165 104.049 52.5128 103.645ZM102.129 45.4301C101.51 45.2859 100.859 45.3904 100.317 45.7212L83.2559 56.149L73.3858 62.1505C72.5979 62.6292 71.5693 62.3834 71.088 61.6006C70.6058 60.8179 70.8529 59.7939 71.6399 59.3151L81.55 53.2996C82.1502 52.9004 82.5674 52.2812 82.7096 51.5779C82.9 50.8598 82.7793 50.0955 82.376 49.4708C81.9932 48.8433 81.3735 48.3942 80.6562 48.2223C79.9389 48.0504 79.1817 48.1714 78.5536 48.5568L62.3031 58.4408C58.7417 60.6034 55.8763 63.7335 54.045 67.4626H54.044L50.1418 75.4125C50.008 75.6999 49.7896 75.9402 49.5155 76.101H49.5164L44.1889 79.3467L56.1765 98.7305L61.504 95.4847C61.8627 95.2684 62.2919 95.1973 62.7026 95.286C68.3917 96.4476 74.3119 95.4097 79.2596 92.384L106.951 75.5048C107.822 74.9744 108.097 73.8414 107.564 72.9745C107.31 72.5577 106.896 72.262 106.419 72.1529C105.963 72.0531 105.488 72.1289 105.086 72.3655V72.3645L87.3575 83.1497C86.5742 83.6293 85.5485 83.3863 85.0663 82.6062C84.585 81.8272 84.8293 80.8069 85.6126 80.3282L114.384 62.8918C115.562 62.1634 115.93 60.6266 115.21 59.4473C114.496 58.2773 112.968 57.8993 111.786 58.5999L85.9189 74.2729C85.1347 74.7525 84.1089 74.5095 83.6276 73.7295C83.1454 72.9504 83.3898 71.9301 84.174 71.4514L110.122 55.6979L112.546 54.2405C113.834 53.4576 114.239 51.7849 113.452 50.504C112.665 49.224 110.983 48.8202 109.695 49.603H109.696L104.661 52.6767H104.594L80.4447 67.3701C79.6568 67.846 78.631 67.5965 78.1534 66.8137C77.6749 66.0309 77.9258 65.0106 78.7128 64.5347L102.874 49.8283C103.71 49.3116 104.147 48.3449 103.984 47.3801C103.82 46.4162 103.087 45.6454 102.129 45.4301ZM90.9406 47.5364L85.9187 49.1657L85.9186 49.1656C86.0394 49.5852 86.1156 50.0159 86.1444 50.4512L90.9406 47.5364ZM38.2987 55.2607C38.0989 55.5074 37.8304 55.6922 37.5266 55.7902L31.5324 57.7514L37.2336 75.0548L38.9785 73.9948C39.1661 73.8811 39.3743 73.8044 39.5908 73.7693C39.7757 73.7369 39.9652 73.7369 40.1501 73.7693H40.27C40.4669 73.8173 40.6518 73.9033 40.8163 74.0216C40.9965 74.15 41.1508 74.3117 41.2688 74.4984L42.5082 76.5122L47.4233 73.5307L51.1129 66.0051C53.2128 61.7022 56.514 58.0914 60.6234 55.6053L76.8601 45.7084C78.2408 44.859 79.9059 44.5966 81.4826 44.9792C82.422 45.2093 83.2908 45.664 84.0136 46.3045L95.4689 42.581C96.7483 42.1715 97.4526 40.8075 97.04 39.534C96.6283 38.2605 95.257 37.5609 93.9767 37.9703L75.0223 44.105H74.9424L63.9536 47.6685C63.0774 47.9504 62.139 47.4735 61.8556 46.602C61.5722 45.7315 62.0526 44.7971 62.9278 44.5153L62.9269 44.5162L73.9697 40.9387C75.0242 40.569 75.7564 39.6106 75.8316 38.5016C75.9069 37.3916 75.3113 36.3445 74.3162 35.8372C73.6547 35.5072 72.8891 35.4499 72.1848 35.6782H72.1857L54.0836 41.5477C50.1135 42.8303 46.5968 45.2165 43.9468 48.4244H43.9459L38.2987 55.2607ZM20.8766 58.9305C20.059 58.9241 19.3714 58.3197 19.2646 57.5129L12.7783 59.62L13.6842 62.3491C13.8552 62.2871 14.0345 62.2511 14.2166 62.2428C15.1179 62.0967 15.968 62.7049 16.1148 63.6004C16.2616 64.4968 15.6503 65.3425 14.749 65.4885L14.7499 65.4894L16.9873 72.3256C17.1833 72.2526 17.3905 72.2129 17.5996 72.2064C18.4302 72.2073 19.1308 72.8228 19.2348 73.6417C19.3398 74.4613 18.8168 75.2301 18.0133 75.4391L20.2504 82.2882C20.7651 82.0599 21.3616 82.1052 21.8355 82.4102C22.3084 82.7152 22.5946 83.2383 22.5946 83.7992C22.5899 84.5774 22.0315 85.2437 21.2631 85.3888L22.2359 88.3564L22.9681 88.1179C22.7358 87.8324 22.6048 87.4784 22.5945 87.1115C22.6075 86.7677 22.7237 86.435 22.9281 86.1568L22.7283 85.8389C22.6159 85.6467 22.5388 85.436 22.5016 85.2169C22.4013 84.5571 22.7116 83.9027 23.2877 83.5608L29.3882 79.8511C29.6456 79.2347 30.2495 78.8327 30.9194 78.8308V78.8299H31.0263L32.7183 77.7967C32.6263 77.5933 32.5807 77.3715 32.5845 77.1479C32.5891 76.3661 33.1457 75.696 33.9168 75.5444L31.6526 68.6417C31.4147 68.7841 31.1434 68.8617 30.8665 68.8672C29.994 68.8691 29.2712 68.1963 29.2145 67.3303C29.1578 66.4644 29.7878 65.7047 30.6537 65.5947L28.3895 58.6653C28.1367 58.8344 27.8403 58.9259 27.5365 58.9305C26.6241 58.9712 25.852 58.2679 25.8111 57.3604C25.7712 56.4528 26.4782 55.6848 27.3897 55.6451L27.3906 55.6442L27.1639 54.9557L22.3419 56.5194C22.4701 56.7504 22.5388 57.0101 22.5416 57.2744C22.5416 57.7134 22.366 58.1348 22.0538 58.4453C21.7416 58.7559 21.318 58.9305 20.8766 58.9305ZM27.5371 65.554C28.4569 65.554 29.2021 64.8128 29.2021 63.8979C29.2021 62.9829 28.4569 62.2417 27.5371 62.2417C26.6172 62.2417 25.8721 62.9829 25.8721 63.8979C25.8721 64.8128 26.6172 65.554 27.5371 65.554ZM32.5322 73.8345C32.5322 74.7495 31.787 75.4906 30.8672 75.4906C29.9473 75.4906 29.2021 74.7495 29.2021 73.8345C29.2021 72.9196 29.9473 72.1784 30.8672 72.1784C31.787 72.1784 32.5322 72.9196 32.5322 73.8345ZM27.5371 78.8029C28.4569 78.8029 29.2021 78.0618 29.2021 77.1468C29.2021 76.2319 28.4569 75.4907 27.5371 75.4907C26.6172 75.4907 25.8721 76.2319 25.8721 77.1468C25.8721 78.0618 26.6172 78.8029 27.5371 78.8029ZM25.8725 60.5856C25.8725 61.5005 25.1273 62.2417 24.2075 62.2417C23.2876 62.2417 22.5425 61.5005 22.5425 60.5856C22.5425 59.6706 23.2876 58.9295 24.2075 58.9295C25.1273 58.9295 25.8725 59.6706 25.8725 60.5856ZM24.2075 68.8662C25.1273 68.8662 25.8725 68.125 25.8725 67.2101C25.8725 66.2952 25.1273 65.554 24.2075 65.554C23.2876 65.554 22.5425 66.2952 22.5425 67.2101C22.5425 68.125 23.2876 68.8662 24.2075 68.8662ZM25.8725 73.8345C25.8725 74.7495 25.1273 75.4906 24.2075 75.4906C23.2876 75.4906 22.5425 74.7495 22.5425 73.8345C22.5425 72.9196 23.2876 72.1784 24.2075 72.1784C25.1273 72.1784 25.8725 72.9196 25.8725 73.8345ZM27.5371 72.1784C28.4569 72.1784 29.2021 71.4372 29.2021 70.5223C29.2021 69.6074 28.4569 68.8662 27.5371 68.8662C26.6172 68.8662 25.8721 69.6074 25.8721 70.5223C25.8721 71.4372 26.6172 72.1784 27.5371 72.1784ZM25.8725 80.4591C25.8725 81.374 25.1273 82.1152 24.2075 82.1152C23.2876 82.1152 22.5425 81.374 22.5425 80.4591C22.5425 79.5441 23.2876 78.8029 24.2075 78.8029C25.1273 78.8029 25.8725 79.5441 25.8725 80.4591ZM17.5468 62.2417C18.4667 62.2417 19.2118 61.5005 19.2118 60.5856C19.2118 59.6706 18.4667 58.9295 17.5468 58.9295C16.627 58.9295 15.8818 59.6706 15.8818 60.5856C15.8818 61.5005 16.627 62.2417 17.5468 62.2417ZM19.2118 67.2101C19.2118 68.125 18.4667 68.8662 17.5468 68.8662C16.627 68.8662 15.8818 68.125 15.8818 67.2101C15.8818 66.2952 16.627 65.554 17.5468 65.554C18.4667 65.554 19.2118 66.2952 19.2118 67.2101ZM20.8779 65.554C21.7977 65.554 22.5429 64.8128 22.5429 63.8979C22.5429 62.9829 21.7977 62.2417 20.8779 62.2417C19.9581 62.2417 19.2129 62.9829 19.2129 63.8979C19.2129 64.8128 19.9581 65.554 20.8779 65.554ZM22.5429 70.5223C22.5429 71.4372 21.7977 72.1784 20.8779 72.1784C19.9581 72.1784 19.2129 71.4372 19.2129 70.5223C19.2129 69.6074 19.9581 68.8662 20.8779 68.8662C21.7977 68.8662 22.5429 69.6074 22.5429 70.5223ZM20.8779 78.8029C21.7977 78.8029 22.5429 78.0618 22.5429 77.1468C22.5429 76.2319 21.7977 75.4907 20.8779 75.4907C19.9581 75.4907 19.2129 76.2319 19.2129 77.1468C19.2129 78.0618 19.9581 78.8029 20.8779 78.8029ZM52.5126 100.332C52.5126 101.247 51.7675 101.989 50.8476 101.989C49.9278 101.989 49.1826 101.247 49.1826 100.332C49.1826 99.4175 49.9278 98.6763 50.8476 98.6763C51.7675 98.6763 52.5126 99.4175 52.5126 100.332ZM47.5175 105.301C48.4374 105.301 49.1825 104.56 49.1825 103.645C49.1825 102.73 48.4374 101.989 47.5175 101.989C46.5977 101.989 45.8525 102.73 45.8525 103.645C45.8525 104.56 46.5977 105.301 47.5175 105.301ZM45.852 93.708C45.852 94.6229 45.1068 95.3641 44.187 95.3641C43.2671 95.3641 42.522 94.6229 42.522 93.708C42.522 92.7931 43.2671 92.0519 44.187 92.0519C45.1068 92.0519 45.852 92.7931 45.852 93.708ZM44.187 101.989C45.1068 101.989 45.852 101.247 45.852 100.332C45.852 99.4175 45.1068 98.6763 44.187 98.6763C43.2671 98.6763 42.522 99.4175 42.522 100.332C42.522 101.247 43.2671 101.989 44.187 101.989ZM42.5224 103.645C42.5224 104.56 41.7772 105.301 40.8574 105.301C39.9375 105.301 39.1924 104.56 39.1924 103.645C39.1924 102.73 39.9375 101.989 40.8574 101.989C41.7772 101.989 42.5224 102.73 42.5224 103.645ZM47.5175 98.6764C48.4374 98.6764 49.1825 97.9352 49.1825 97.0202C49.1825 96.1053 48.4374 95.3641 47.5175 95.3641C46.5977 95.3641 45.8525 96.1053 45.8525 97.0202C45.8525 97.9352 46.5977 98.6764 47.5175 98.6764ZM45.852 106.957C45.852 107.872 45.1068 108.613 44.187 108.613C43.2671 108.613 42.522 107.872 42.522 106.957C42.522 106.042 43.2671 105.301 44.187 105.301C45.1068 105.301 45.852 106.042 45.852 106.957ZM40.8574 85.4274C41.7772 85.4274 42.5224 84.6862 42.5224 83.7713C42.5224 82.8563 41.7772 82.1151 40.8574 82.1151C39.9375 82.1151 39.1924 82.8563 39.1924 83.7713C39.1924 84.6862 39.9375 85.4274 40.8574 85.4274ZM39.1923 87.0835C39.1923 87.9984 38.4471 88.7396 37.5273 88.7396C36.6075 88.7396 35.8623 87.9984 35.8623 87.0835C35.8623 86.1686 36.6075 85.4274 37.5273 85.4274C38.4471 85.4274 39.1923 86.1686 39.1923 87.0835ZM34.1972 92.0519C35.1171 92.0519 35.8622 91.3107 35.8622 90.3958C35.8622 89.4809 35.1171 88.7397 34.1972 88.7397C33.2774 88.7397 32.5322 89.4809 32.5322 90.3958C32.5322 91.3107 33.2774 92.0519 34.1972 92.0519ZM39.1923 93.708C39.1923 94.6229 38.4471 95.3641 37.5273 95.3641C36.6075 95.3641 35.8623 94.6229 35.8623 93.708C35.8623 92.7931 36.6075 92.0519 37.5273 92.0519C38.4471 92.0519 39.1923 92.7931 39.1923 93.708ZM40.8574 92.0519C41.7772 92.0519 42.5224 91.3107 42.5224 90.3958C42.5224 89.4809 41.7772 88.7397 40.8574 88.7397C39.9375 88.7397 39.1924 89.4809 39.1924 90.3958C39.1924 91.3107 39.9375 92.0519 40.8574 92.0519ZM39.1923 100.332C39.1923 101.247 38.4471 101.989 37.5273 101.989C36.6075 101.989 35.8623 101.247 35.8623 100.332C35.8623 99.4175 36.6075 98.6763 37.5273 98.6763C38.4471 98.6763 39.1923 99.4175 39.1923 100.332ZM40.8574 98.6764C41.7772 98.6764 42.5224 97.9352 42.5224 97.0202C42.5224 96.1053 41.7772 95.3641 40.8574 95.3641C39.9375 95.3641 39.1924 96.1053 39.1924 97.0202C39.1924 97.9352 39.9375 98.6764 40.8574 98.6764ZM32.5322 87.0835C32.5322 87.9984 31.787 88.7396 30.8672 88.7396C29.9473 88.7396 29.2021 87.9984 29.2021 87.0835C29.2021 86.1686 29.9473 85.4274 30.8672 85.4274C31.787 85.4274 32.5322 86.1686 32.5322 87.0835ZM34.1972 85.4274C35.1171 85.4274 35.8622 84.6862 35.8622 83.7713C35.8622 82.8563 35.1171 82.1151 34.1972 82.1151C33.2774 82.1151 32.5322 82.8563 32.5322 83.7713C32.5322 84.6862 33.2774 85.4274 34.1972 85.4274ZM83.8672 17.7917L80.1907 25.8468C79.8227 26.6776 80.1897 27.6489 81.0167 28.0325C81.2341 28.1314 81.4701 28.1813 81.7098 28.1785C82.3621 28.1803 82.9558 27.8024 83.228 27.2118L86.9046 19.1697C87.1768 18.3573 86.7819 17.472 85.994 17.1282C85.2052 16.7844 84.2835 17.0949 83.8672 17.8444L83.8672 17.7917ZM112.994 94.6109C112.885 95.439 112.174 96.0573 111.334 96.0526C111.172 96.0554 111.01 96.0332 110.855 95.987L100.798 93.3374C99.9118 93.0879 99.3961 92.1721 99.646 91.2904C99.896 90.4087 100.818 89.8949 101.704 90.1444L111.761 92.794C112.573 93.0038 113.103 93.7819 112.994 94.6109ZM99.1188 109.209L99.1189 109.209L99.1189 109.209C99.4163 109.727 99.9709 110.046 100.57 110.043C100.86 110.039 101.144 109.962 101.396 109.819C102.157 109.365 102.427 108.397 102.009 107.619C99.3457 103.075 96.455 97.921 96.1755 97.312L94.6304 97.8951L93.0712 97.2852C92.7246 98.1863 92.7246 98.1863 99.1188 109.209ZM85.3337 99.2618C85.6793 98.9883 86.1206 98.8635 86.5592 98.9153L86.5592 98.9154C86.9996 98.9625 87.4029 99.1816 87.6798 99.5244C87.9576 99.8673 88.0858 100.306 88.0375 100.743V100.744L87.0387 109.515C86.9439 110.351 86.2331 110.984 85.3867 110.985H85.2008C84.2893 110.882 83.6334 110.064 83.7356 109.157H83.7347L84.7205 100.373C84.7678 99.9356 84.9881 99.5354 85.3337 99.2618Z" fill="#000080"/>
</svg>
