<svg width="128" height="128" viewBox="0 0 128 128" fill="none" xmlns="http://www.w3.org/2000/svg">
<path d="M88.251 17.0005C81.3072 17.0005 75.5642 21.9307 74.6461 28.3045H28.8983C27.8639 28.3045 27.0241 29.104 27.0241 30.0886L27 109.216C27 109.69 27.1966 110.142 27.5491 110.477C27.9016 110.811 28.3785 111 28.8743 111H88.2505C95.831 111 102 105.128 102 97.9119L101.999 30.0881C101.999 22.8712 95.8313 17 88.2495 17L88.251 17.0005ZM88.251 107.431H30.749L30.772 31.8722L74.5009 31.8732V39.6091H40.7082C39.6738 39.6091 38.834 40.4085 38.834 41.3932C38.834 42.3778 39.6738 43.1773 40.7082 43.1773H74.5009V51.6199H40.7082C39.6738 51.6199 38.834 52.4193 38.834 53.404C38.834 54.3886 39.6738 55.1881 40.7082 55.1881H74.5009V63.6307L40.7082 63.6297C39.6738 63.6297 38.834 64.4291 38.834 65.4138C38.834 66.3984 39.6738 67.1979 40.7082 67.1979H74.5009V75.6405H40.7082C39.6738 75.6405 38.834 76.4399 38.834 77.4246C38.834 78.4092 39.6738 79.2087 40.7082 79.2087H74.5009V87.6513H40.7082C39.6738 87.6513 38.834 88.4507 38.834 89.4354C38.834 90.42 39.6738 91.2195 40.7082 91.2195H74.5009V97.9139C74.5009 98.8985 75.3408 99.698 76.3752 99.698C77.4096 99.698 78.2494 98.8985 78.2494 97.9139C78.2494 92.6641 82.7353 88.394 88.2504 88.394C93.7656 88.394 98.2514 92.6641 98.2514 97.9139C98.2514 103.163 93.7656 107.433 88.2504 107.433L88.251 107.431ZM88.251 84.8235C84.3089 84.8235 80.7602 86.4194 78.25 88.9582V30.0881C78.25 24.8383 82.7359 20.5682 88.251 20.5682C93.7661 20.5682 98.252 24.8383 98.252 30.0881V88.9582C95.7418 86.4185 92.1931 84.8224 88.251 84.8224V84.8235Z" fill="#000080"/>
</svg>
