<svg width="128" height="128" viewBox="0 0 128 128" fill="none" xmlns="http://www.w3.org/2000/svg">
<path d="M77.7189 28.2328C71.1321 21.7776 62.2641 18.1827 53.0419 18.2293C43.8197 18.2758 34.9884 21.9602 28.4672 28.4816C21.946 35.003 18.2619 43.8346 18.2153 53.0572C18.1687 62.2798 21.7635 71.1481 28.2185 77.7351C41.428 90.9452 62.6248 91.327 76.3541 78.9621L107.401 110.011L109.986 107.429L78.9352 76.3773C84.9272 69.7204 88.1397 61.0197 87.9114 52.0659C87.6832 43.1121 84.0317 34.5865 77.7083 28.2434L77.7189 28.2328ZM75.1378 75.1398C70.7544 79.524 65.1694 82.5099 59.089 83.7198C53.0087 84.9297 46.7061 84.3092 40.9784 81.9369C35.2507 79.5646 30.3551 75.5469 26.9107 70.3921C23.4663 65.2372 21.6278 59.1767 21.6278 52.9769C21.6278 46.7771 23.4663 40.7166 26.9107 35.5617C30.3551 30.4069 35.2507 26.3892 40.9784 24.0169C46.7061 21.6446 53.0087 21.0241 59.089 22.234C65.1694 23.4439 70.7544 26.4298 75.1378 30.814C81.0071 36.6964 84.3034 44.667 84.3034 52.9769C84.3034 61.2868 81.0071 69.2574 75.1378 75.1398Z" fill="#000080"/>
</svg>
