<svg width="128" height="128" viewBox="0 0 128 128" fill="none" xmlns="http://www.w3.org/2000/svg">
<path fill-rule="evenodd" clip-rule="evenodd" d="M99.1001 36V53H95.1001V36H78.1001V32H95.1001V15H99.1001V32H116.1V36H99.1001ZM55.3024 28.4C60.2531 28.3942 65.1611 29.3145 69.7734 31.1133L71.2268 27.3867C66.1501 25.4068 60.7479 24.3938 55.2988 24.4C46.2953 24.4017 37.5111 27.1779 30.1419 32.3508C22.7725 37.5238 17.1764 44.8424 14.1155 53.3099C11.0546 61.7775 10.6776 70.9827 13.0359 79.6722C15.3942 88.3617 20.3732 96.1133 27.295 101.872C34.2167 107.63 42.7449 111.115 51.7185 111.853C60.6921 112.59 69.6749 110.545 77.4441 105.994C85.2133 101.443 91.3913 94.6088 95.1369 86.421C98.8825 78.2333 100.014 69.0901 98.3768 60.2364L94.4435 60.9636C95.931 69.0088 94.903 77.317 91.4995 84.757C88.0959 92.197 82.4821 98.4073 75.4225 102.542C68.3628 106.678 60.2003 108.536 52.0462 107.866C43.8922 107.196 36.1428 104.029 29.8531 98.7965C23.5635 93.5641 19.0392 86.5204 16.8963 78.6245C14.7534 70.7286 15.0959 62.364 17.8773 54.6698C20.6586 46.9755 25.7437 40.3253 32.4401 35.6247C39.1365 30.924 47.1189 28.4013 55.3004 28.4L55.3024 28.4ZM53.2998 45.78V72.97V74.0648L54.2221 74.6548L76.5621 88.9448L78.7175 85.5752L57.2998 71.8752V45.78H53.2998Z" fill="#000080"/>
</svg>
