<svg width="128" height="128" viewBox="0 0 128 128" fill="none" xmlns="http://www.w3.org/2000/svg">
<path d="M113.123 34.0838C109.501 35.7408 105.619 36.8534 101.539 37.3584C105.704 34.786 108.904 30.7145 110.405 25.8696C106.515 28.2447 102.189 29.9728 97.6034 30.9038C93.9284 26.8638 88.6915 24.3467 82.8957 24.3467C71.7635 24.3467 62.7368 33.6419 62.7368 45.1149C62.7368 46.7403 62.9206 48.3263 63.2651 49.8492C46.5132 48.9813 31.6678 40.7119 21.7223 28.1421C19.9843 31.2195 18.9967 34.786 18.9967 38.5893C18.9967 45.7935 22.5492 52.1533 27.9621 55.8856C24.6546 55.7751 21.5462 54.8361 18.8282 53.2817C18.8282 53.3685 18.8282 53.4553 18.8282 53.5421C18.8282 63.6105 25.7801 71.9982 34.9906 73.9156C33.3062 74.3891 31.5223 74.6416 29.6848 74.6416C28.3832 74.6416 27.1199 74.5153 25.8873 74.2628C28.4598 82.5085 35.9017 88.5291 44.714 88.6948C37.8234 94.2656 29.1335 97.5796 19.6857 97.5796C18.0549 97.5796 16.4548 97.4849 14.8853 97.2877C23.7971 103.19 34.3934 106.622 45.7782 106.622C82.8498 106.622 103.124 74.973 103.124 47.5294C103.124 46.6299 103.101 45.7224 103.07 44.8387C107.005 41.9113 110.42 38.25 113.123 34.0838Z" fill="#000080"/>
</svg>
