<svg width="128" height="128" viewBox="0 0 128 128" fill="none" xmlns="http://www.w3.org/2000/svg">
<path fill-rule="evenodd" clip-rule="evenodd" d="M74.8101 24.7037C65.0951 24.7208 55.4474 30.9405 52.3652 40.9602C52.074 41.9067 51.134 42.4976 50.1548 42.3497C45.0265 41.5747 39.7246 41.7981 35.4547 43.9146C31.3061 45.971 27.8548 49.9495 26.5585 57.3433C26.3678 58.4311 25.3314 59.1584 24.2435 58.9679C20.1617 58.253 17.1217 59.3927 14.9627 61.3883C12.7433 63.4397 11.326 66.5249 10.8748 69.8168C10.4225 73.1159 10.9726 76.3872 12.3941 78.757C13.7652 81.0427 15.9638 82.5524 19.1882 82.5524H40.9376V86.5524H19.1882C14.4484 86.5524 10.9993 84.2078 8.96389 80.8146C6.97887 77.5054 6.36358 73.2731 6.91184 69.2736C7.46107 65.267 9.21015 61.2585 12.2476 58.4509C14.9582 55.9455 18.5948 54.4957 22.9993 54.7919C24.7393 47.3987 28.6647 42.8159 33.6783 40.3307C38.4551 37.9629 43.9936 37.6109 49.0936 38.1769C53.2322 27.2763 64.0327 20.7226 74.803 20.7037C80.484 20.6937 86.2042 22.4972 90.9656 26.466C95.434 30.1907 98.9563 35.7364 100.859 43.2381C113.38 44.046 121.212 53.7324 122.194 63.7118C122.708 68.9277 121.366 74.3085 117.791 78.579C114.203 82.8644 108.523 85.8468 100.706 86.5554L100.708 86.5553L100.524 84.5637L100.704 86.5556L100.706 86.5554C98.9968 86.7132 97.6408 86.7113 95.8949 86.6739C95.5492 86.6665 95.1877 86.6577 94.8038 86.6483L94.7953 86.6481C93.2485 86.6104 91.3372 86.5637 88.6316 86.5637V82.5637C91.3906 82.5637 93.3571 82.6118 94.9061 82.6496C95.2877 82.6589 95.644 82.6676 95.9806 82.6748C97.6762 82.7112 98.8553 82.7093 100.34 82.5722L100.343 82.5719C107.306 81.9411 111.933 79.3443 114.724 76.0112C117.527 72.6629 118.635 68.3853 118.214 64.1038C117.367 55.504 110.411 47.2303 99.2535 47.1839C98.3155 47.18 97.5062 46.5247 97.3073 45.608C95.6698 38.0606 92.3827 32.8547 88.4044 29.5386C84.4221 26.2191 79.6315 24.6952 74.8101 24.7037ZM67.0857 67.8279V107H63.0857V67.8275L51.7266 80.079L48.7934 77.3594L63.6189 61.3692L65.0855 59.7873L66.5521 61.3692L81.3776 77.3594L78.4444 80.079L67.0857 67.8279Z" fill="#000080"/>
</svg>
