<svg width="128" height="128" viewBox="0 0 128 128" fill="none" xmlns="http://www.w3.org/2000/svg">
<path fill-rule="evenodd" clip-rule="evenodd" d="M45.37 107.46C51.33 109.56 59.57 112 65.64 112H66.48C72.8707 111.723 79.1381 110.148 84.9 107.37C93.587 103.22 100.811 96.5324 105.619 88.1913C110.427 79.8502 112.593 70.2473 111.83 60.65C110.862 48.6171 105.352 37.4034 96.4164 29.2861C87.4812 21.1688 75.7917 16.7563 63.7214 16.9447C51.6511 17.1331 40.1049 21.9082 31.4274 30.3004C22.7499 38.6926 17.5916 50.0727 17 62.13C16.74 68.17 19.19 76.84 21.33 83.06C22.3318 86.0155 22.8255 89.1195 22.79 92.24C22.8067 94.7942 22.6194 97.3456 22.23 99.87C22.0244 100.892 22.0788 101.95 22.388 102.946C22.6972 103.942 23.2515 104.844 24 105.57C24.7404 106.287 25.6457 106.811 26.6363 107.095C27.6269 107.379 28.6722 107.415 29.68 107.2C31.8319 106.737 34.0141 106.43 36.21 106.28C39.3124 106.024 42.4337 106.427 45.37 107.46ZM46.69 103.69C43.9158 102.705 40.9938 102.201 38.05 102.2C37.34 102.2 36.62 102.23 35.95 102.26C33.5666 102.43 31.1976 102.765 28.86 103.26C28.4955 103.35 28.1146 103.35 27.75 103.26C27.3751 103.165 27.0308 102.976 26.75 102.71C26.4791 102.448 26.2795 102.121 26.17 101.76C26.057 101.377 26.0398 100.971 26.12 100.58C26.5584 97.822 26.7691 95.0326 26.75 92.24C26.7834 88.6844 26.2188 85.1484 25.08 81.78C23.45 77 20.76 68 21 62.32C21.4243 53.895 24.288 45.7749 29.2427 38.9477C34.1974 32.1204 41.0295 26.8803 48.9078 23.8647C56.786 20.8492 65.3709 20.1884 73.6179 21.9625C81.8648 23.7367 89.4185 27.8694 95.3597 33.8578C101.301 39.8463 105.374 47.4324 107.083 55.6932C108.791 63.9539 108.063 72.5333 104.985 80.3874C101.907 88.2416 96.6131 95.032 89.7468 99.9325C82.8806 104.833 74.7381 107.632 66.31 107.99C60.53 108.21 51.54 105.39 46.69 103.69ZM86.5608 74.4759C85.3635 73.8382 79.457 70.8322 78.3167 70.4223C77.2106 69.9896 76.3782 69.7391 75.5687 70.9916C74.7591 72.2441 72.4329 75.0566 71.7374 75.8878C71.0418 76.719 70.2778 76.8214 69.1376 76.2066C62.0451 72.5743 57.3929 69.6936 52.7178 61.4043C52.0336 60.186 52.4897 59.685 53.4247 58.6716C54.5876 57.4766 55.5466 56.0997 56.264 54.5953C56.4206 54.2501 56.492 53.8725 56.4722 53.494C56.4523 53.1156 56.3418 52.7475 56.15 52.4205C55.9892 52.0904 55.2614 50.2645 54.4547 48.2407C54.2318 47.6815 54.0029 47.1072 53.7782 46.5452C53.2651 45.2129 52.7748 43.9718 52.4327 43.1292C51.5775 41 50.6995 41 49.9926 41H49.7189H47.4384C46.8238 41.0195 46.2201 41.1674 45.6663 41.4341C45.1125 41.7008 44.6208 42.0805 44.2228 42.5485C44.1496 42.6452 44.0696 42.7365 43.9834 42.8218C42.6794 44.1625 41.656 45.7491 40.9727 47.489C40.2895 49.2289 39.9601 51.0873 40.0038 52.9557C40.0038 58.9532 44.1046 64.7232 44.8602 65.7864L44.8614 65.7881L44.9184 65.8678L45.1464 66.198C46.6402 68.4069 54.2571 79.6453 65.5343 84.6439C73.1855 88.0484 76.1958 88.3444 80.0271 87.7637C82.3532 87.3994 87.1651 84.735 88.1572 81.8201C89.1492 78.9052 89.0922 76.2977 88.8527 75.8878C88.6161 75.4827 88.0119 75.1888 87.1393 74.7643L87.1081 74.7491L86.5608 74.4759Z" fill="#000080"/>
</svg>
