<svg width="128" height="128" viewBox="0 0 128 128" fill="none" xmlns="http://www.w3.org/2000/svg">
<path fill-rule="evenodd" clip-rule="evenodd" d="M64.5166 23.9677C63.8992 23.9677 63.3288 23.6485 63.0189 23.1296L57.8933 14.5203C57.5842 14.0014 57.5834 13.3623 57.8909 12.8427C58.1992 12.3238 58.7681 12.0023 59.3855 12H69.6367C70.2564 11.9985 70.8293 12.3184 71.1392 12.838C71.4498 13.3584 71.4498 13.9999 71.1407 14.5203L71.1399 14.5195L66.0143 23.1296C65.7053 23.6485 65.134 23.9677 64.5166 23.9677ZM64.5111 18.9411L66.6413 15.3931L62.3808 15.3492L64.5111 18.9411ZM53.8613 30.0485L43.6101 30.2366L43.6101 30.2367C43.0134 30.2274 42.4627 29.9206 42.1544 29.4233C41.8462 28.9268 41.8239 28.3108 42.0956 27.7943L47.0504 19.0847C47.3499 18.5604 47.914 18.2312 48.5314 18.2196C49.1496 18.2081 49.7264 18.5172 50.0458 19.0299L55.3089 27.5066C55.6252 28.0201 55.6363 28.6577 55.3383 29.1812C55.0404 29.7054 54.4778 30.0354 53.8621 30.0493L53.8613 30.0485ZM50.8436 26.7888L48.6332 23.207L46.572 26.9214L50.8436 26.7888ZM75.1392 30.0827L85.3904 30.2708L85.3912 30.27C86.0022 30.2693 86.5671 29.9555 86.8778 29.4451C87.1884 28.9347 87.1996 28.3033 86.9064 27.7837L81.985 19.0849C81.6862 18.5607 81.1213 18.2315 80.504 18.2199C79.8866 18.2083 79.3089 18.5175 78.9895 19.0302L73.6931 27.5408V27.5401C73.3768 28.0535 73.3649 28.6911 73.6629 29.2146C73.9608 29.7388 74.5234 30.0688 75.1392 30.0827ZM80.4015 23.2412L82.4642 26.9217L78.1807 26.7891L80.4015 23.2412ZM109.665 46.3172C110.278 46.0551 110.942 45.9202 111.612 45.9194L111.612 45.9217C114.301 45.9217 117.023 48.1543 117 52.4093V76.4703C117 83.9641 115.758 89.7886 113.309 93.911C112.497 95.355 111.397 96.6286 110.075 97.6578V113.308C110.075 114.015 109.62 114.647 108.935 114.889C105.075 116.237 101.009 116.95 96.9072 117H96.4058C92.1614 116.998 87.9495 116.284 83.956 114.889C83.2711 114.647 82.8158 114.015 82.8166 113.308V101.559C82.8278 98.0003 82.8278 97.5363 79.5359 94.3421C78.0683 92.8851 76.7312 91.31 75.5378 89.6339C74.2911 87.7181 72.6654 86.0613 70.7537 84.7599C69.7899 84.1563 68.7935 83.6027 67.7693 83.1016C66.5957 82.572 65.5 81.8912 64.5116 81.0794C63.5462 81.8942 62.4735 82.5819 61.3222 83.1239C60.298 83.625 59.3016 84.1786 58.3379 84.7822C56.426 86.0835 54.8004 87.7404 53.5538 89.6562C52.3634 91.3277 51.0294 92.8997 49.5666 94.3537C46.2859 97.5477 46.2859 98.0119 46.2859 101.571V113.309C46.2867 114.016 45.8314 114.647 45.1473 114.889C41.1284 116.293 36.8887 117.007 32.6172 117H32.0705C27.9833 116.946 23.9335 116.233 20.0879 114.889C19.403 114.647 18.9477 114.016 18.9485 113.309V97.658C17.6176 96.6311 16.51 95.3576 15.6908 93.9112C13.2419 89.7334 12 83.9089 12 76.4705V52.4194C12 48.1421 14.723 45.9318 17.411 45.9318C18.0816 45.9318 18.745 46.0675 19.3584 46.3296V45.7105C19.3076 44.1355 19.9289 42.6097 21.0762 41.4942C22.2236 40.3793 23.7953 39.7726 25.4185 39.8196C26.368 39.8189 27.3056 40.0231 28.1637 40.4163C28.4458 38.5042 29.6733 36.846 31.4507 35.9756C33.2272 35.1059 35.3312 35.1329 37.084 36.0481C38.8369 36.964 40.0184 38.6524 40.2488 40.5713C42.1289 39.7603 44.3074 39.9522 46.0062 41.0786C47.705 42.2042 48.6815 44.1032 48.587 46.0976V73.9382C48.5854 74.4185 48.8452 74.8641 49.2703 75.1101C49.6906 75.3421 50.2063 75.3421 50.6258 75.1101C51.143 74.8364 51.6444 74.5372 52.1299 74.2142C54.1314 72.7054 56.5684 71.8396 59.1006 71.7386C61.0663 71.6569 62.9932 72.2829 64.5115 73.4964C66.022 72.2629 67.9497 71.6168 69.9225 71.6831C72.4549 71.7849 74.8917 72.6499 76.8932 74.1595C77.3787 74.4825 77.88 74.7809 78.3973 75.0546C78.8168 75.2874 79.3325 75.2874 79.7528 75.0546C80.1779 74.8086 80.4377 74.363 80.4361 73.8827V46.052C80.3417 44.0582 81.3182 42.1593 83.0169 41.033C84.7158 39.9074 86.8944 39.7154 88.7743 40.5257C89.0048 38.6067 90.1863 36.9184 91.9391 36.0032C93.6918 35.0873 95.7958 35.0603 97.5724 35.9307C99.3498 36.8011 100.577 38.4587 100.859 40.3715C101.717 39.9775 102.655 39.774 103.605 39.774C105.237 39.727 106.815 40.3391 107.964 41.464C109.112 42.5895 109.728 44.1269 109.665 45.7097V46.3172ZM59.649 80.1823H59.6482L59.6489 80.1619C62.2343 78.869 62.781 78.438 62.7921 77.0672C62.7921 76.2715 61.8011 75.0665 59.1013 75.0665C57.2491 75.1914 55.4814 75.8629 54.0329 76.9901C53.4465 77.3902 52.8379 77.7595 52.2102 78.0949C50.7022 78.8365 48.9057 78.7648 47.4652 77.906C46.0254 77.047 45.1474 75.5245 45.1482 73.8838V46.0985C45.2467 45.3947 45.0187 44.6854 44.526 44.1611C44.0342 43.6361 43.3271 43.3501 42.5969 43.3794C41.935 43.3732 41.3033 43.6469 40.8663 44.1287C40.4293 44.6098 40.2291 45.252 40.3181 45.8881V66.4892C40.4007 66.9765 40.2585 67.473 39.9296 67.8492C39.6006 68.2247 39.1175 68.4413 38.6098 68.4413C38.1013 68.4413 37.619 68.2247 37.2901 67.8492C36.9611 67.473 36.8189 66.9765 36.9015 66.4892V41.8973C36.9015 40.2174 36.0585 38.5814 34.1905 38.5814C32.3226 38.5814 31.4795 40.2729 31.4795 41.8973V66.5899C31.3421 67.4017 30.6191 67.9977 29.7705 67.9977C28.9227 67.9977 28.1989 67.4017 28.0622 66.5899V45.7105C28.0813 44.9657 27.7547 44.2518 27.1739 43.7653C26.6654 43.3475 26.017 43.1239 25.3512 43.1354C24.6409 43.0984 23.9496 43.3598 23.4522 43.8524C22.9548 44.3459 22.7006 45.0228 22.7538 45.7105V69.3175C22.8364 69.8047 22.6942 70.3013 22.3653 70.6775C22.0363 71.0529 21.5532 71.2696 21.0455 71.2696C20.537 71.2696 20.0547 71.0529 19.7258 70.6775C19.3968 70.3013 19.2546 69.8048 19.3364 69.3175V52.4071C19.3364 50.263 18.3234 49.2793 17.389 49.2793C16.4554 49.2793 15.4416 50.2515 15.4416 52.4071V76.4247C15.4416 91.6882 21.0344 95.0257 21.3761 95.2138C22.0022 95.4713 22.3971 96.0796 22.3669 96.7388V112.124C28.9906 114.179 36.1098 114.179 42.7338 112.124H42.7331V101.602C42.7219 97.4019 42.9039 96.0095 47.0275 92.0083C48.3615 90.6814 49.5772 89.2466 50.661 87.7201C52.154 85.4735 54.0894 83.5352 56.3563 82.0172C57.4195 81.348 58.5184 80.7358 59.649 80.1823ZM107.645 95.2682C108.132 94.9578 113.561 91.4968 113.561 76.4909L113.401 52.4055C113.401 50.2613 112.388 49.2776 111.453 49.2776C110.52 49.2776 109.506 50.2498 109.506 52.4055V69.3158C109.588 69.8031 109.446 70.2996 109.117 70.6758C108.788 71.0513 108.305 71.2679 107.798 71.2679C107.289 71.2679 106.807 71.0513 106.478 70.6758C106.149 70.2996 106.007 69.8031 106.088 69.3158V45.7088C106.136 45.0095 105.883 44.3234 105.39 43.8122C104.897 43.3003 104.208 43.0104 103.486 43.0104C102.764 43.0104 102.075 43.3003 101.582 43.8122C101.088 44.3234 100.836 45.0095 100.883 45.7088V66.5882C100.746 67.4001 100.023 67.996 99.1743 67.996C98.3265 67.996 97.6035 67.4001 97.466 66.5882V41.8957C97.466 40.2157 96.623 38.5797 94.755 38.5797C92.887 38.5797 92.044 40.2713 92.044 41.8957V66.4876C92.1267 66.9748 91.9837 67.4713 91.6547 67.8476C91.3258 68.223 90.8435 68.4397 90.3357 68.4397C89.8272 68.4397 89.3449 68.223 89.016 67.8476C88.687 67.4713 88.5448 66.9748 88.6266 66.4876V45.8864C88.7164 45.2504 88.5162 44.6082 88.0792 44.1271C87.6414 43.6452 87.0105 43.3715 86.3487 43.3777C85.632 43.3716 84.9471 43.6676 84.4727 44.1895C83.9984 44.7115 83.7815 45.4069 83.8768 46.0969V73.8822C83.887 75.5251 83.0163 77.0555 81.5773 77.9213C80.1384 78.7879 78.3388 78.8658 76.826 78.1264C76.1983 77.791 75.5897 77.4217 75.0033 77.0216C73.5557 75.8945 71.787 75.2229 69.9349 75.098C67.2237 75.098 66.2441 76.2916 66.2441 77.0987C66.2441 78.4363 66.7906 78.8673 69.3539 80.171C70.4847 80.7245 71.5835 81.3374 72.6458 82.0059C74.9128 83.5246 76.8482 85.4627 78.3412 87.7094C79.4331 89.2328 80.6566 90.6637 81.9978 91.9867C86.1207 95.9873 86.2915 97.3798 86.2915 101.58V112.102C92.916 114.157 100.035 114.157 106.658 112.102V96.7387C106.653 96.1088 107.033 95.5352 107.627 95.2801H107.626C107.631 95.2768 107.637 95.2729 107.645 95.2682Z" fill="#000080"/>
</svg>
