<svg width="185" height="65" viewBox="0 0 185 65" fill="none" xmlns="http://www.w3.org/2000/svg">
<g clip-path="url(#clip0_152_1211)">
<path d="M27.3598 0C27.3598 0 53.1398 18.26 63.8798 37.12C73.4098 54.7 48.8798 63.8 25.7598 44.84C45.8798 51 65.2798 35.11 27.3598 0Z" fill="#000080"/>
<path d="M39.77 64.8001C39.77 64.8001 13.52 47.2101 2.31002 28.6301C-7.68998 11.3001 16.56 1.57012 40.21 19.9301C19.94 14.2801 1.00002 30.6801 39.77 64.8001Z" fill="#000080"/>
<path d="M72 20.0898H77C80.52 20.0898 82.82 21.6498 82.82 24.9498V24.9998C82.82 28.3098 80.43 29.7898 77.07 29.7898H74.87V35.7898H72V20.0898ZM77 27.7198C78.94 27.7198 80 26.7698 80 25.0398V24.9998C80 23.1298 78.9 22.3998 77 22.3998H74.89V27.7698L77 27.7198Z" fill="#000080"/>
<path d="M83.4102 32.6201C83.4102 29.9301 86.0002 29.0001 89.3002 29.0001H90.7302V28.4101C90.7302 26.8701 90.2002 26.1001 88.6402 26.1001C88.3759 26.0606 88.1064 26.0771 87.8489 26.1483C87.5914 26.2195 87.3517 26.344 87.1453 26.5136C86.9389 26.6832 86.7704 26.8943 86.6507 27.1331C86.5309 27.3719 86.4626 27.6332 86.4501 27.9001H83.8801C84.1001 25.2201 86.2302 24.1001 88.8002 24.1001C91.3702 24.1001 93.3902 25.1501 93.3902 28.2901V35.8001H90.7802V34.4001C90.3765 34.9426 89.8419 35.3739 89.2263 35.6537C88.6107 35.9335 87.9343 36.0527 87.2602 36.0001C85.1502 36.0001 83.4102 35.0001 83.4102 32.6201ZM90.7302 31.7801V30.6401H89.3702C87.3702 30.6401 86.0502 31.1001 86.0502 32.5101C86.0502 33.5101 86.5802 34.1101 87.9002 34.1101C89.5202 34.1101 90.7302 33.2501 90.7302 31.7801Z" fill="#000080"/>
<path d="M94.8999 32.2201H97.4099C97.5399 33.3901 98.1299 34.0701 99.6899 34.0701C101.25 34.0701 101.76 33.5601 101.76 32.5901C101.76 31.6201 101 31.3001 99.2999 31.0001C96.2999 30.5201 95.1499 29.6601 95.1499 27.5101C95.1499 25.2001 97.2999 24.0601 99.4499 24.0601C101.8 24.0601 103.67 24.9401 103.96 27.5301H101.5C101.47 27.2974 101.395 27.0728 101.278 26.8693C101.162 26.6658 101.006 26.4873 100.82 26.3442C100.634 26.2011 100.422 26.0962 100.195 26.0354C99.9688 25.9746 99.7324 25.9592 99.4999 25.9901C98.3599 25.9901 97.6799 26.5401 97.6799 27.3501C97.6799 28.1601 98.2299 28.5201 100.05 28.8301C102.76 29.2401 104.36 29.9001 104.36 32.3401C104.36 34.7801 102.66 36.0001 99.7199 36.0001C96.7799 36.0001 94.9999 34.6601 94.8999 32.2201Z" fill="#000080"/>
<path d="M106.42 32.5898V26.3098H104.88V24.3098H106.42V21.7798H109.08V24.3098H111.6V26.3098H109.08V32.3098C109.08 33.3098 109.56 33.7798 110.39 33.7798C110.834 33.7987 111.277 33.7237 111.69 33.5598V35.6698C111.113 35.8759 110.503 35.9743 109.89 35.9598C107.6 35.9998 106.42 34.7698 106.42 32.5898Z" fill="#000080"/>
<path d="M112.66 30.18V30C112.65 28.4353 113.263 26.9309 114.363 25.8179C115.463 24.7048 116.96 24.0743 118.525 24.065C120.09 24.0558 121.594 24.6685 122.707 25.7684C123.82 26.8683 124.45 28.3653 124.46 29.93V30.11C124.464 30.8848 124.316 31.653 124.024 32.3705C123.732 33.0881 123.301 33.7411 122.756 34.2922C121.657 35.4053 120.16 36.0358 118.595 36.045C117.82 36.0496 117.052 35.9016 116.334 35.6093C115.617 35.3171 114.964 34.8863 114.413 34.3417C113.3 33.2418 112.669 31.7448 112.66 30.18ZM121.73 30.13V30C121.73 27.63 120.54 26.18 118.57 26.18C116.6 26.18 115.38 27.6 115.38 29.98V30.15C115.38 32.5 116.54 33.98 118.57 33.98C120.6 33.98 121.73 32.48 121.73 30.13Z" fill="#000080"/>
<path d="M126.19 24.3099H128.85V26.4599C129.157 25.7354 129.68 25.1231 130.347 24.7062C131.015 24.2893 131.794 24.0881 132.58 24.1299V26.6199C130.25 26.6199 128.85 27.3899 128.85 29.8299V35.8299H126.19V24.3099Z" fill="#000080"/>
<path d="M133.68 28.0501V27.8701C133.68 23.1501 136.93 19.8701 141.31 19.8701C144.91 19.8701 147.7 21.6701 148.05 25.3601H145.05C145.026 24.9011 144.908 24.4519 144.703 24.0404C144.498 23.6288 144.211 23.2637 143.86 22.9675C143.508 22.6713 143.1 22.4503 142.66 22.3184C142.219 22.1864 141.757 22.1461 141.3 22.2001C138.53 22.2001 136.73 24.3501 136.73 27.8701V28.0001C136.73 31.5401 138.42 33.6301 141.32 33.6301C141.801 33.6755 142.286 33.6256 142.747 33.4832C143.209 33.3409 143.638 33.1088 144.009 32.8004C144.381 32.492 144.688 32.1132 144.913 31.6859C145.138 31.2586 145.276 30.791 145.32 30.3101H148.18C147.71 34.0901 145.03 36.0001 141.3 36.0001C136.43 36.0001 133.68 32.8801 133.68 28.0501Z" fill="#000080"/>
<path d="M149.87 19H152.53V26.14C152.893 25.4832 153.433 24.9417 154.089 24.5775C154.745 24.2132 155.491 24.0408 156.24 24.08C158.55 24.08 160.18 25.42 160.18 28.58V35.8H157.52V28.8C157.52 27.07 156.82 26.28 155.23 26.28C154.866 26.2558 154.501 26.3104 154.159 26.4401C153.818 26.5698 153.509 26.7716 153.253 27.0316C152.996 27.2917 152.799 27.6039 152.674 27.947C152.55 28.2901 152.501 28.6561 152.53 29.02V35.8H149.87V19Z" fill="#000080"/>
<path d="M162.57 24.3098H165.23V26.4598C165.539 25.7285 166.068 25.1115 166.744 24.6941C167.419 24.2767 168.207 24.0795 169 24.1298V26.6198C166.68 26.6198 165.27 27.3898 165.27 29.8298V35.8298H162.61L162.57 24.3098Z" fill="#000080"/>
<path d="M170.41 20.9002C170.396 20.5832 170.477 20.2691 170.643 19.9986C170.809 19.7281 171.053 19.5135 171.342 19.3823C171.631 19.2512 171.952 19.2095 172.265 19.2627C172.578 19.316 172.868 19.4616 173.097 19.6809C173.327 19.9002 173.485 20.1832 173.553 20.4934C173.62 20.8036 173.593 21.1268 173.475 21.4214C173.357 21.7161 173.153 21.9686 172.89 22.1466C172.628 22.3246 172.318 22.4199 172 22.4202C171.795 22.4269 171.591 22.3927 171.4 22.3195C171.209 22.2464 171.034 22.1358 170.886 21.9942C170.738 21.8527 170.62 21.683 170.538 21.4952C170.456 21.3073 170.413 21.1051 170.41 20.9002ZM170.7 24.3102H173.36V35.8002H170.7V24.3102Z" fill="#000080"/>
<path d="M175.05 32.2198H177.55C177.69 33.3898 178.28 34.0698 179.84 34.0698C181.4 34.0698 181.9 33.5598 181.9 32.5898C181.9 31.6198 181.14 31.2998 179.44 31.0098C176.44 30.5298 175.29 29.6698 175.29 27.5198C175.29 25.2098 177.44 24.0698 179.6 24.0698C181.95 24.0698 183.82 24.9498 184.1 27.5398H181.64C181.611 27.3066 181.537 27.0813 181.421 26.8771C181.304 26.673 181.149 26.494 180.963 26.3507C180.776 26.2073 180.564 26.1025 180.336 26.0422C180.109 25.982 179.873 25.9676 179.64 25.9998C178.49 25.9998 177.81 26.5498 177.81 27.3598C177.81 28.1698 178.36 28.5298 180.19 28.8398C182.89 29.2498 184.49 29.9098 184.49 32.3498C184.49 34.7898 182.81 35.9998 179.86 35.9998C176.91 35.9998 175.16 34.6598 175.05 32.2198Z" fill="#000080"/>
<path d="M70.3501 44.5399V44.4299C70.3501 43.1622 70.8537 41.9464 71.7501 41.0499C72.6466 40.1535 73.8624 39.6499 75.1301 39.6499C76.3978 39.6499 77.6136 40.1535 78.5101 41.0499C79.4065 41.9464 79.9101 43.1622 79.9101 44.4299V44.5399C79.9101 45.8076 79.4065 47.0234 78.5101 47.9199C77.6136 48.8163 76.3978 49.3199 75.1301 49.3199C73.8624 49.3199 72.6466 48.8163 71.7501 47.9199C70.8537 47.0234 70.3501 45.8076 70.3501 44.5399ZM78.6801 44.5399V44.4299C78.6801 42.2499 77.4001 40.4299 75.1501 40.4299C72.9001 40.4299 71.5801 42.0899 71.5801 44.4299V44.5399C71.5346 45.043 71.5935 45.5501 71.753 46.0294C71.9126 46.5087 72.1694 46.9499 72.5073 47.3254C72.8452 47.7009 73.2571 48.0026 73.717 48.2116C74.1769 48.4205 74.675 48.5323 75.1801 48.5399C77.3401 48.4899 78.6801 46.8499 78.6801 44.4999V44.5399Z" fill="#000080"/>
<path d="M84.6099 39.6001H86.1499L90.8899 47.6601V39.6001H91.9999V49.3501H90.6599L85.7399 41.0001V49.3601H84.6099V39.6001Z" fill="#000080"/>
<path d="M97.21 39.6001H98.39V48.3801H102.85V49.3801H97.21V39.6001Z" fill="#000080"/>
<path d="M107.29 39.6001H108.48V49.3501H107.29V39.6001Z" fill="#000080"/>
<path d="M113.73 39.6001H115.27L120 47.6601V39.6001H121.13V49.3501H119.77L114.86 41.0001V49.3601H113.73V39.6001Z" fill="#000080"/>
<path d="M126.32 39.6001H132V40.6001H127.51V43.9101H131.13V44.9101H127.51V48.4401H132.25V49.4401H126.32V39.6001Z" fill="#000080"/>
</g>
<defs>
<clipPath id="clip0_152_1211">
<rect width="184.45" height="64.8" fill="white"/>
</clipPath>
</defs>
</svg>
