<svg width="128" height="126" viewBox="0 0 128 126" fill="none" xmlns="http://www.w3.org/2000/svg">
<g clip-path="url(#clip0_1104_27252)">
<path d="M42.1867 0C42.1867 0 81.4907 29.2227 97.8489 59.4105C112.38 87.5786 75.0677 102.121 39.7412 71.7728C70.415 81.6507 99.9937 56.1993 42.1867 0Z" fill="white"/>
<path d="M61.0918 103.712C61.0918 103.712 21.09 75.5619 3.98844 45.8329C-11.2236 18.0937 25.72 2.52017 61.7557 31.8977C30.872 22.8539 1.92877 49.0977 61.0918 103.712Z" fill="white"/>
<path d="M2.26953 91.749H7.88682C11.7905 91.749 14.3552 93.5721 14.3552 97.4148V97.5161C14.3552 101.389 11.6941 103.11 7.96058 103.11H5.51507V110.081H2.26953V91.749ZM7.88682 100.644C10.0373 100.644 11.1834 99.5417 11.1834 97.5161V97.4148C11.1834 95.2402 9.96351 94.3943 7.88682 94.3943H5.51507V100.644H7.88682Z" fill="white"/>
<path d="M14.9902 106.339C14.9902 103.212 17.8726 102.086 21.5324 102.086H23.1211V101.395C23.1211 99.6072 22.5537 98.7016 20.8004 98.7016C19.2628 98.7016 18.5025 99.4702 18.3606 100.805H15.5236C15.7676 97.6769 18.1336 96.3662 20.9934 96.3662C23.8531 96.3662 26.1 97.5995 26.1 101.263V110.057H23.1722V108.431C22.3438 109.58 21.2203 110.325 19.2685 110.325C16.9308 110.313 14.9902 109.134 14.9902 106.339ZM23.1211 105.368V104.034H21.6062C19.3365 104.034 17.918 104.57 17.918 106.214C17.918 107.34 18.4854 108.085 19.972 108.085C21.7764 108.085 23.1211 107.084 23.1211 105.368Z" fill="white"/>
<path d="M27.7568 105.881H30.5485C30.696 107.239 31.3542 108.031 33.0904 108.031C34.6791 108.031 35.36 107.436 35.36 106.316C35.36 105.196 34.5089 104.802 32.6251 104.469C29.2605 103.903 28.0122 102.902 28.0122 100.394C28.0122 97.7007 30.4066 96.3662 32.801 96.3662C35.4111 96.3662 37.4878 97.3909 37.8055 100.417H35.0877C34.8437 99.1842 34.1798 98.6301 32.8181 98.6301C31.5471 98.6301 30.7868 99.2676 30.7868 100.221C30.7868 101.174 31.3996 101.579 33.4252 101.937C36.4267 102.425 38.2141 103.194 38.2141 106.036C38.2141 108.752 36.3814 110.319 33.1074 110.319C29.8335 110.319 27.876 108.723 27.7568 105.881Z" fill="white"/>
<path d="M40.5469 106.316V98.9817H38.8447V96.6462H40.5469V93.7031H43.5031V96.6462H46.3401V98.9817H43.5031V106.048C43.5031 107.239 44.0705 107.769 44.967 107.769C45.4589 107.787 45.9492 107.7 46.4082 107.513V109.974C45.7648 110.209 45.0865 110.322 44.4053 110.307C41.8974 110.289 40.5469 108.854 40.5469 106.316Z" fill="white"/>
<path d="M47.4805 103.492V103.289C47.4805 99.1187 50.3175 96.3662 54.051 96.3662C57.7845 96.3662 60.6215 99.1127 60.6215 103.212V103.414C60.6215 107.585 57.7845 110.313 54.051 110.313C50.3175 110.313 47.4805 107.573 47.4805 103.492ZM57.5632 103.444V103.265C57.5632 100.495 56.2468 98.8029 54.051 98.8029C51.8551 98.8029 50.5104 100.471 50.5104 103.235V103.444C50.5104 106.185 51.8041 107.9 54.051 107.9C56.2979 107.9 57.5632 106.185 57.5632 103.444Z" fill="white"/>
<path d="M62.5164 96.6463H65.4725V99.1605C65.8135 98.3144 66.3948 97.5995 67.1371 97.1133C67.8795 96.627 68.7466 96.3932 69.6202 96.4438V99.3392C67.0329 99.3392 65.4725 100.239 65.4725 103.087V110.057H62.5164V96.6463Z" fill="white"/>
<path d="M70.835 101.007V100.805C70.835 95.288 74.4493 91.4453 79.312 91.4453C83.3121 91.4453 86.4158 93.5484 86.8073 97.8558H83.5107C83.1419 95.4191 81.8482 94.162 79.3347 94.162C76.2593 94.162 74.228 96.6762 74.228 100.775V100.984C74.228 105.106 76.1061 107.537 79.3347 107.537C81.7518 107.537 83.4597 106.256 83.8058 103.665H86.9776C86.4669 108.079 83.488 110.307 79.3347 110.307C73.8933 110.313 70.835 106.643 70.835 101.007Z" fill="white"/>
<path d="M88.832 90.4443H91.7882V98.7852C92.3953 97.4745 93.8138 96.3723 95.9132 96.3723C98.4779 96.3723 100.282 97.9392 100.282 101.627V110.063H97.3317V101.907C97.3317 99.8814 96.5487 98.9281 94.7898 98.9281C94.3847 98.9021 93.9791 98.9677 93.6003 99.1203C93.2214 99.2729 92.8782 99.5091 92.5937 99.8129C92.3092 100.117 92.0901 100.481 91.9511 100.881C91.8122 101.282 91.7566 101.709 91.7882 102.133V110.027H88.832V90.4443Z" fill="white"/>
<path d="M102.943 96.6459H105.894V99.1601C106.236 98.3136 106.818 97.5984 107.561 97.1122C108.305 96.626 109.173 96.3925 110.047 96.4434V99.3388C107.46 99.3388 105.894 100.238 105.894 103.086V110.057H102.943V96.6459Z" fill="white"/>
<path d="M111.687 92.6726C111.676 92.3047 111.77 91.9417 111.956 91.6302C112.143 91.3186 112.414 91.0726 112.734 90.9238C113.055 90.775 113.411 90.7302 113.756 90.795C114.101 90.8599 114.419 91.0315 114.671 91.2879C114.922 91.5443 115.095 91.8737 115.167 92.2339C115.239 92.5941 115.207 92.9686 115.075 93.3095C114.942 93.6503 114.716 93.942 114.425 94.1469C114.134 94.3519 113.791 94.4609 113.441 94.4599C113.213 94.4671 112.986 94.4261 112.774 94.3395C112.561 94.2529 112.367 94.1224 112.204 93.9557C112.04 93.7891 111.91 93.5896 111.822 93.3692C111.733 93.1488 111.687 92.9119 111.687 92.6726ZM112.005 96.6464H114.956V110.057H112.005V96.6464Z" fill="white"/>
<path d="M116.794 105.881H119.574C119.722 107.239 120.38 108.031 122.116 108.031C123.699 108.031 124.386 107.436 124.386 106.316C124.386 105.196 123.529 104.802 121.651 104.469C118.281 103.903 117.038 102.902 117.038 100.394C117.038 97.7007 119.432 96.3662 121.821 96.3662C124.437 96.3662 126.508 97.3909 126.826 100.417H124.091C123.847 99.1842 123.189 98.6301 121.821 98.6301C120.556 98.6301 119.796 99.2676 119.796 100.221C119.796 101.174 120.408 101.579 122.434 101.937C125.436 102.425 127.217 103.194 127.217 106.036C127.217 108.752 125.385 110.319 122.111 110.319C118.837 110.319 116.93 108.723 116.794 105.881Z" fill="white"/>
<path d="M0.476641 120.245V120.12C0.476641 116.891 2.6271 114.347 5.80455 114.347C8.98201 114.347 11.0927 116.891 11.0927 120.09V120.215C11.0927 123.426 8.98768 126 5.8386 126C5.12097 126.013 4.40842 125.872 3.74452 125.585C3.08062 125.299 2.47933 124.873 1.97743 124.335C1.47553 123.796 1.08357 123.155 0.825519 122.452C0.567468 121.749 0.448755 120.998 0.476641 120.245ZM9.73098 120.197V120.072C9.73098 117.528 8.3068 115.461 5.80455 115.461C3.30231 115.461 1.83273 117.397 1.83273 120.102V120.233C1.83273 122.979 3.57466 124.856 5.80455 124.856C8.24438 124.856 9.73098 122.95 9.73098 120.197Z" fill="white"/>
<path d="M16.3185 114.49H18.0207L23.2862 123.885V114.49H24.5458V125.857H23.0422L17.5781 116.11V125.857H16.3185V114.49Z" fill="white"/>
<path d="M30.3163 114.49H31.6327V124.731H36.5804V125.857H30.339L30.3163 114.49Z" fill="white"/>
<path d="M41.5225 114.49H42.8388V125.857H41.5225V114.49Z" fill="white"/>
<path d="M48.6718 114.49H50.374L55.6451 123.885V114.49H56.9048V125.857H55.3955L49.9257 116.11V125.857H48.6718V114.49Z" fill="white"/>
<path d="M62.6639 114.49H68.9791V115.622H63.9803V119.482H67.9975V120.614H63.969V124.731H69.2401V125.857H62.6639V114.49Z" fill="white"/>
</g>
<defs>
<clipPath id="clip0_1104_27252">
<rect width="126.78" height="126" fill="white" transform="translate(0.476562)"/>
</clipPath>
</defs>
</svg>
